<svg width="44" height="44" viewBox="0 0 44 44" fill="none" xmlns="http://www.w3.org/2000/svg">
<g clip-path="url(#clip0_188_6578)">
<circle cx="21.7134" cy="11.9317" r="6.67238" fill="#333333"/>
<path d="M12.6487 32.6324C14.9131 32.6324 16.7487 30.9108 16.7487 28.7871C16.7487 26.6635 14.9131 24.9419 12.6487 24.9419C10.3844 24.9419 8.54883 26.6635 8.54883 28.7871C8.54883 30.9108 10.3844 32.6324 12.6487 32.6324Z" fill="#FCC4A6"/>
<path d="M31.3436 32.6324C33.6079 32.6324 35.4435 30.9108 35.4435 28.7871C35.4435 26.6635 33.6079 24.9419 31.3436 24.9419C29.0792 24.9419 27.2437 26.6635 27.2437 28.7871C27.2437 30.9108 29.0792 32.6324 31.3436 32.6324Z" fill="#FCC4A6"/>
<path d="M33.5792 25.5633C33.6824 18.532 27.6327 12.7905 20.4689 13.5601C14.9592 14.1522 10.5463 18.6297 10.0267 24.1473C9.97391 24.7087 9.96051 25.2629 9.98337 25.8077C9.98337 25.8077 10.9847 25.5696 11.8748 27.5029L18.6302 19.9433C18.6302 19.9433 26.8316 26.53 32.2443 26.1704C32.3634 26.1625 32.5013 26.1208 32.637 26.0632C32.9981 25.8598 33.3008 25.4829 33.5784 25.5641L33.5792 25.5633Z" fill="#333333"/>
<path d="M21.9978 38.7416C27.6542 38.7416 32.2397 34.1561 32.2397 28.4997C32.2397 22.8433 27.6542 18.2578 21.9978 18.2578C16.3413 18.2578 11.7559 22.8433 11.7559 28.4997C11.7559 34.1561 16.3413 38.7416 21.9978 38.7416Z" fill="#FCC4A6"/>
<path d="M20.6657 33.519C20.4205 33.519 20.2471 33.2841 20.3117 33.0476C20.5183 32.297 21.2058 31.7458 22.0219 31.7458C22.8379 31.7458 23.5254 32.297 23.732 33.0476C23.7966 33.2841 23.6232 33.519 23.378 33.519L20.6657 33.519Z" fill="#F9844F"/>
<ellipse cx="27.6934" cy="33.161" rx="2.03711" ry="1.93393" fill="#FF7272"/>
<ellipse cx="27.6936" cy="33.1609" rx="0.992419" ry="0.942151" fill="#FFD06C"/>
<path fill-rule="evenodd" clip-rule="evenodd" d="M17.437 12.7119C18.9344 12.1457 20.5736 11.8685 22.2866 11.9472C23.3403 11.9957 24.3602 12.1858 25.3296 12.4951C25.4709 12.4941 25.6144 12.5074 25.7583 12.5381C26.0573 12.6019 26.3245 12.7321 26.5513 12.9072C26.6462 12.9488 26.7408 12.9912 26.8345 13.0351C26.9811 13.0328 27.1303 13.0462 27.2798 13.0781C27.8427 13.1983 28.2956 13.5484 28.5669 14.0078C28.6881 14.0107 28.8112 14.0245 28.9341 14.0508C29.706 14.2157 30.273 14.8117 30.4429 15.5322C31.0132 15.8048 31.4151 16.3335 31.5317 16.9433C32.0772 17.7036 32.5372 18.5295 32.896 19.4082L32.8774 19.415C33.4715 20.8243 33.8056 22.3613 33.8149 23.9609C33.8181 24.5457 33.7799 25.121 33.7026 25.6845C33.5615 26.7157 32.4831 27.3415 31.5063 26.9814L25.6108 24.8086C25.5293 24.8016 25.4469 24.7929 25.3647 24.7754C25.087 24.7161 24.8358 24.5997 24.6196 24.4433L24.312 24.3301C24.0957 24.3581 23.8714 24.3537 23.646 24.3056C23.437 24.261 23.2433 24.1836 23.0679 24.082C22.677 24.2826 22.2176 24.3566 21.7544 24.2578C21.6786 24.2416 21.6054 24.2195 21.5337 24.1953C21.1127 24.461 20.5922 24.5701 20.0669 24.458C20.0659 24.4578 20.065 24.4572 20.064 24.457L19.9614 24.498C19.6823 24.7328 19.3415 24.8879 18.9741 24.9414C18.5808 25.3558 18.0183 25.5907 17.4243 25.5547C17.0656 26.0386 16.4474 26.297 15.8198 26.1631C15.8019 26.1592 15.7847 26.1528 15.7671 26.1484L12.0854 27.5996C11.1458 27.9691 10.0846 27.4153 9.87549 26.4277C9.74326 25.8038 9.66005 25.1618 9.63037 24.5058C9.47534 24.2814 9.38428 24.0092 9.38428 23.7158C9.38432 23.556 9.41178 23.4027 9.46143 23.2597C9.35918 23.066 9.30127 22.8456 9.30127 22.6113C9.30127 22.3607 9.36792 22.126 9.48389 21.9228C9.42103 21.829 9.38428 21.7161 9.38428 21.5947C9.38442 21.3286 9.56103 21.1057 9.80322 21.0322C9.80093 21.0049 9.79932 20.9771 9.79932 20.9492C9.79939 20.5981 9.98519 20.2905 10.2632 20.1181C10.5412 19.3049 10.9063 18.5324 11.3423 17.8076C11.4217 17.1543 11.8107 16.4752 12.4585 15.9853C12.5979 15.88 12.7426 15.7877 12.8901 15.7099C13.0903 15.0307 13.6312 14.5311 14.2827 14.3594C14.582 13.7412 15.1834 13.3233 15.8608 13.2549C16.2701 12.8609 16.8428 12.6496 17.437 12.7119Z" fill="#FCFCFC"/>
<circle cx="30.8899" cy="24.9425" r="1.97637" transform="rotate(12.0483 30.8899 24.9425)" fill="#FCFCFC"/>
<circle cx="28.5462" cy="24.2775" r="1.97637" transform="rotate(12.0483 28.5462 24.2775)" fill="#FCFCFC"/>
<circle cx="27.0247" cy="23.4518" r="1.97637" transform="rotate(12.0483 27.0247 23.4518)" fill="#FCFCFC"/>
<circle cx="14.5359" cy="24.8371" r="1.97637" transform="rotate(12.0483 14.5359 24.8371)" fill="#FCFCFC"/>
<circle cx="30.471" cy="18.6042" r="1.97637" transform="rotate(12.0483 30.471 18.6042)" fill="#FCFCFC"/>
<circle cx="11.4172" cy="20.0445" r="1.34919" transform="rotate(12.0483 11.4172 20.0445)" fill="#FCFCFC"/>
<circle cx="12.116" cy="18.7871" r="1.34919" transform="rotate(12.0483 12.116 18.7871)" fill="#FCFCFC"/>
<path d="M13.0216 22.5878C10.1007 20.8036 10.0753 18.05 11.5778 15.5902C13.0803 13.1304 15.5418 11.896 18.4627 13.6802C21.3837 15.4644 23.6579 19.5917 22.1554 22.0515C20.6529 24.5112 15.9425 24.372 13.0216 22.5878Z" fill="#F5F5F5"/>
<path d="M14.2516 21.3828C12.2649 20.1693 12.2476 18.2964 13.2696 16.6234C14.2916 14.9504 15.9658 14.1107 17.9524 15.3243C19.9391 16.5378 21.486 19.345 20.464 21.0181C19.4421 22.6911 16.2383 22.5964 14.2516 21.3828Z" fill="#FCFCFC"/>
<path d="M31.3887 22.1283C34.1318 20.0811 33.902 17.337 32.1781 15.027C30.4541 12.717 27.8889 11.7159 25.1458 13.7631C22.4027 15.8102 20.5206 20.1304 22.2445 22.4404C23.9685 24.7504 28.6457 24.1754 31.3887 22.1283Z" fill="#F5F5F5"/>
<path d="M29.9837 21.3828C31.9704 20.1693 31.9877 18.2964 30.9658 16.6234C29.9438 14.9504 28.2696 14.1107 26.2829 15.3243C24.2962 16.5378 22.7494 19.345 23.7713 21.0181C24.7933 22.6911 27.9971 22.5964 29.9837 21.3828Z" fill="#FCFCFC"/>
<path d="M24.4989 21.498C24.4989 24.5017 23.323 24.8368 21.8725 24.8368C20.422 24.8368 19.2461 24.5406 19.2461 21.498C19.2461 18.8208 20.422 18.1592 21.8725 18.1592C23.323 18.1592 24.4989 18.7819 24.4989 21.498Z" fill="#F5F5F5"/>
<path d="M20.2981 28.0249C20.2981 28.4812 19.17 29.0778 18.115 29.4172C17.9694 29.4638 17.841 29.3239 17.9348 29.2199L18.6512 28.4285C18.8674 28.1897 18.8674 27.8602 18.6512 27.6209L17.9348 26.8296C17.841 26.726 17.9694 26.5856 18.115 26.6323C19.17 26.9717 20.2981 27.5683 20.2981 28.0245V28.0249Z" fill="#333333"/>
<path d="M23.4468 28.0249C23.4468 28.4812 24.575 29.0778 25.63 29.4172C25.7755 29.4638 25.9039 29.3239 25.8101 29.2199L25.0937 28.4285C24.8775 28.1897 24.8775 27.8602 25.0937 27.6209L25.8101 26.8296C25.9039 26.726 25.7755 26.5856 25.63 26.6323C24.575 26.9717 23.4468 27.5683 23.4468 28.0245V28.0249Z" fill="#333333"/>
</g>
<defs>
<clipPath id="clip0_188_6578">
<rect width="44" height="44" fill="white"/>
</clipPath>
</defs>
</svg>
