<svg width="44" height="44" viewBox="0 0 44 44" fill="none" xmlns="http://www.w3.org/2000/svg">
<g clip-path="url(#clip0_190_6625)">
<path d="M86.6648 0.89502H-211.134V45.1395H86.6648V0.89502Z" stroke="#F24253" stroke-width="1.70171" stroke-miterlimit="10"/>
<path d="M35.6109 22.7535L33.4472 20.783C33.1289 20.355 32.9222 19.8487 32.8907 19.3169C32.7767 17.371 33.1451 16.8707 32.37 14.8585C30.8912 11.0211 27.5984 8.16649 23.5526 7.43051C15.3512 5.93896 8.20996 12.1978 8.20996 20.1261C8.20996 22.9884 9.1459 25.6277 10.7234 27.7668C11.6942 29.0831 12.2507 30.6571 12.2507 32.2925V36.9475C12.2507 37.92 13.0394 38.7088 14.0119 38.7088H23.4666C24.4392 38.7088 25.2279 37.92 25.2279 36.9475V34.4205H30.1892C31.4749 34.4205 32.5742 33.4947 32.7928 32.227L33.0915 30.4938L31.4357 29.3987C30.8376 29.0031 30.9661 28.091 31.6502 27.8757L33.5101 27.292L33.5237 25.7919L35.5802 24.0792C35.9912 23.7371 36.0048 23.1109 35.61 22.751L35.6109 22.7535Z" fill="#FFCCA8"/>
<path d="M33.7863 21.0911L25.2207 23.7704L21.8037 29.1478L27.4406 34.4205L30.9266 34.6877C32.1135 34.7788 33.2018 34.0257 33.5344 32.8822L36.0572 24.2214C36.2146 23.6811 36.047 23.0991 35.6267 22.7255L33.7863 21.0894V21.0911Z" fill="white"/>
<path d="M24.6179 30.4888L15.455 26.9211C14.3132 26.4685 13.4164 25.5989 12.9305 24.4732C12.4438 23.3467 12.4251 22.0994 12.8769 20.9584C13.3296 19.8182 14.1975 18.9223 15.324 18.4364C16.4514 17.9497 17.6996 17.9319 18.838 18.3837C19.2702 18.5547 19.6693 18.7878 20.0267 19.0746L26.3247 24.355L25.855 24.9157L19.5621 19.6395C19.2685 19.403 18.9325 19.2073 18.5691 19.0635C17.6111 18.684 16.562 18.6985 15.615 19.1086C14.668 19.5179 13.9379 20.2709 13.5585 21.2289C13.1781 22.1878 13.1934 23.2369 13.6027 24.1839C14.012 25.1301 14.7641 25.861 15.723 26.2413L24.8842 29.8081L24.6179 30.4888Z" fill="white"/>
</g>
<path d="M37.245 34.6956C37.2433 36.6389 35.5539 38.2126 33.4715 38.2109C31.3891 38.2091 29.7023 36.6325 29.704 34.6891C29.7053 33.1864 31.9622 30.6646 32.9859 29.1419C33.2145 28.8017 33.7446 28.8021 33.9729 29.1428C34.994 30.6672 37.2463 33.1929 37.245 34.6956Z" fill="#88C5FF"/>
<path d="M13.2892 22.3844C13.2892 20.411 14.889 18.8115 16.8621 18.8115C18.8353 18.8115 20.4351 20.4113 20.4351 22.3844V27.3397C20.4351 28.4811 19.5099 29.4062 18.3685 29.4062C17.6293 29.4062 16.9827 29.017 16.6175 28.4337L16.6153 28.4343L13.967 24.4785L13.9707 24.4772C13.5441 23.8886 13.2892 23.1672 13.2892 22.3844Z" fill="#FFCCA8"/>
<path d="M17.2392 25.7722C17.2392 26.4381 17.7789 26.9778 18.4448 26.9778C19.0147 26.9778 19.6504 26.1545 19.6504 26.1545V25.7725C19.6504 25.1066 19.1107 24.5669 18.4448 24.5669C17.7789 24.5669 17.2392 25.1066 17.2392 25.7725V25.7722Z" fill="#C97C47"/>
<path d="M14.5324 22.7687C14.5324 21.3553 15.6782 20.2095 17.0916 20.2095C18.5051 20.2095 19.6509 21.3553 19.6509 22.7687V22.8317C19.4997 22.7887 19.3436 22.7584 19.1788 22.7584C18.2209 22.7584 17.4441 23.535 17.4441 24.4932C17.4441 25.4514 18.2206 26.2279 19.1788 26.2279C19.3436 26.2279 19.4997 26.1977 19.6509 26.1547V26.318C19.6509 27.1356 18.9881 27.7981 18.1707 27.7981C17.6413 27.7981 17.1783 27.5192 16.9165 27.1017H16.9149L15.0179 24.2685L15.0207 24.2676C14.715 23.846 14.5324 23.3293 14.5324 22.7687Z" fill="#FFB785"/>
<path d="M14.5836 22.2564C14.8211 21.0885 15.8534 20.2095 17.0911 20.2095C18.5046 20.2095 19.6504 21.3553 19.6504 22.7687V22.8317C19.4993 22.7887 19.3431 22.7584 19.1783 22.7584C18.9979 22.7584 18.824 22.7862 18.6607 22.837C18.6607 22.837 17.3741 20.2587 14.5836 22.2564Z" fill="#FFA466"/>
<path fill-rule="evenodd" clip-rule="evenodd" d="M22.6848 17.0091L21.5442 16.6784L22.3675 15.033C22.5022 14.7637 22.1907 14.4913 21.9417 14.661L18.8533 16.7668C18.6492 16.906 18.6992 17.22 18.9365 17.2887L20.077 17.6194L19.2538 19.2649C19.1191 19.5342 19.4306 19.8065 19.6795 19.6369L22.768 17.5311C22.9721 17.3918 22.922 17.0779 22.6848 17.0091Z" fill="#FF8400"/>
<path fill-rule="evenodd" clip-rule="evenodd" d="M17.9555 13.0086L16.8967 13.5463L16.3738 11.7823C16.2882 11.4936 15.8746 11.5076 15.8088 11.8015L14.992 15.4492C14.938 15.6903 15.1891 15.8854 15.4093 15.7735L16.4681 15.2358L16.991 16.9999C17.0767 17.2886 17.4902 17.2746 17.5561 16.9807L18.3729 13.3329C18.4268 13.0918 18.1758 12.8968 17.9555 13.0086Z" fill="#FF4B5B"/>
<defs>
<clipPath id="clip0_190_6625">
<rect width="34.0342" height="34.0342" fill="white" transform="translate(4.98291 6)"/>
</clipPath>
</defs>
</svg>
