<svg width="44" height="44" viewBox="0 0 44 44" fill="none" xmlns="http://www.w3.org/2000/svg">
<path d="M39.5757 23.4633C39.5757 29.896 31.7069 33.6475 22.0002 33.6475C12.2936 33.6475 4.4248 29.896 4.4248 23.4633C4.4248 17.0306 12.2936 10.3525 22.0002 10.3525C31.7069 10.3525 39.5757 17.0306 39.5757 23.4633Z" fill="white"/>
<path d="M22.0328 31.1071C27.0624 31.1071 31.1398 27.0297 31.1398 22.0001C31.1398 16.9704 27.0624 12.8931 22.0328 12.8931C17.0031 12.8931 12.9258 16.9704 12.9258 22.0001C12.9258 27.0297 17.0031 31.1071 22.0328 31.1071Z" fill="#565656"/>
<path d="M22.0331 27.0179C24.8045 27.0179 27.0511 24.7713 27.0511 21.9999C27.0511 19.2286 24.8045 16.9819 22.0331 16.9819C19.2618 16.9819 17.0151 19.2286 17.0151 21.9999C17.0151 24.7713 19.2618 27.0179 22.0331 27.0179Z" fill="#1F1F1F"/>
<path d="M18.5102 20.7566C19.7964 20.7566 20.8392 19.7139 20.8392 18.4276C20.8392 17.1414 19.7964 16.0986 18.5102 16.0986C17.2239 16.0986 16.1812 17.1414 16.1812 18.4276C16.1812 19.7139 17.2239 20.7566 18.5102 20.7566Z" fill="#F1F3F5"/>
<path d="M38.1008 34.9557C38.0987 37.3403 36.0256 39.2714 33.4704 39.2692C30.9151 39.267 28.8454 37.3324 28.8474 34.9478C28.849 33.1038 31.6184 30.0093 32.8745 28.141C33.155 27.7235 33.8055 27.724 34.0856 28.142C35.3386 30.0125 38.1023 33.1118 38.1008 34.9557Z" fill="#88C5FF"/>
</svg>
