<svg width="44" height="44" viewBox="0 0 44 44" fill="none" xmlns="http://www.w3.org/2000/svg">
<path d="M22.2088 9.86374L20.5849 10.8168C20.2562 11.0097 20.1514 11.4359 20.3531 11.7593L22.7096 15.5364C24.5929 18.2028 24.222 21.319 24.222 22.8799C24.222 25.9565 19.9848 24.9051 17.805 24.7687C15.6252 24.6322 11.5962 23.9499 8.73044 28.385C6.61361 31.661 7.94016 35.8096 9.06895 37.8767C9.22176 38.1565 9.55779 38.2691 9.85742 38.1601L11.682 37.4965C12.0439 37.3649 12.2226 36.9593 12.0994 36.5944C11.3881 34.4891 10.8421 30.9744 13.0956 29.7496C16.2343 28.0438 17.3266 30.3637 19.0324 31.8648C21.7502 34.2564 31.4693 37.8825 37.455 29.2038C44.0436 19.651 37.7484 11.9096 33.3435 11.5265C28.9385 11.1435 26.7935 13.4417 26.1423 13.2119C25.683 13.0498 24.0856 11.2262 23.0786 10.0174C22.8648 9.7607 22.4969 9.69462 22.2088 9.86374Z" fill="#FFA3A0"/>
<g clip-path="url(#clip0_188_6556)">
<path d="M9.55877 7.64307H9.99056C10.587 7.64307 11.0696 8.12565 11.0696 8.72211C11.0696 9.31857 10.587 9.80115 9.99056 9.80115H9.55877C8.60017 9.80115 7.821 10.5803 7.821 11.5389V15.3045C7.821 18.5015 10.1716 21.2298 13.1728 21.5166C14.8729 21.6747 16.4992 21.1405 17.7528 20.0009C18.9891 18.8776 19.6987 17.2758 19.6987 15.606V11.5389C19.6987 10.5803 18.9195 9.80115 17.9609 9.80115H17.0097C16.4132 9.80115 15.9306 9.31857 15.9306 8.72211C15.9306 8.12565 16.4132 7.64307 17.0097 7.64307H17.9609C20.1091 7.64307 21.8568 9.39067 21.8568 11.5389V15.606C21.8568 17.8813 20.8908 20.0664 19.2054 21.5977C17.4972 23.1503 15.2834 23.891 12.9688 23.6632C8.873 23.2732 5.66455 19.601 5.66455 15.3045V11.5389C5.66455 9.39067 7.41216 7.64307 9.56041 7.64307H9.55877Z" fill="#949494"/>
<path d="M28.258 29.4219C30.5337 29.4219 32.3784 27.5771 32.3784 25.3015C32.3784 23.0259 30.5337 21.1812 28.258 21.1812C25.9824 21.1812 24.1377 23.0259 24.1377 25.3015C24.1377 27.5771 25.9824 29.4219 28.258 29.4219Z" fill="#949494"/>
<path d="M5.66357 15.3042H7.82084C7.82084 18.5012 10.1715 21.2295 13.1726 21.5163C14.8727 21.6744 16.4991 21.1402 17.7526 20.0005C18.989 18.8772 19.6985 17.2755 19.6985 15.6057H21.8558C21.8558 17.881 20.8898 20.0661 19.2045 21.5974C17.4962 23.15 15.2824 23.8907 12.9678 23.6629C8.87203 23.2729 5.66357 19.6007 5.66357 15.3042Z" fill="#3D3D3D"/>
<path d="M21.0089 34.7894C16.483 34.7894 12.8018 31.1074 12.8018 26.5823V22.4849H14.7181V26.5823C14.7181 30.0513 17.5399 32.8738 21.0097 32.8738C24.4795 32.8738 27.3012 30.0521 27.3012 26.5823H29.2176C29.2176 31.1082 25.5356 34.7894 21.0105 34.7894H21.0089Z" fill="#3D3D3D"/>
<path d="M28.2576 27.3941C29.4133 27.3941 30.3501 26.4572 30.3501 25.3015C30.3501 24.1458 29.4133 23.209 28.2576 23.209C27.1019 23.209 26.165 24.1458 26.165 25.3015C26.165 26.4572 27.1019 27.3941 28.2576 27.3941Z" fill="#D5D5D5"/>
<path d="M10.1286 10.2837C11.002 10.2837 11.7099 9.5757 11.7099 8.70238C11.7099 7.82906 11.002 7.12109 10.1286 7.12109C9.25533 7.12109 8.54736 7.82906 8.54736 8.70238C8.54736 9.5757 9.25533 10.2837 10.1286 10.2837Z" fill="#3D3D3D"/>
<path d="M16.8459 10.2837C17.7193 10.2837 18.4272 9.5757 18.4272 8.70238C18.4272 7.82906 17.7193 7.12109 16.8459 7.12109C15.9726 7.12109 15.2646 7.82906 15.2646 8.70238C15.2646 9.5757 15.9726 10.2837 16.8459 10.2837Z" fill="#3D3D3D"/>
</g>
<defs>
<clipPath id="clip0_188_6556">
<rect width="32.7728" height="32.7728" fill="white" transform="translate(2.63428 4.56836)"/>
</clipPath>
</defs>
</svg>
