<svg width="44" height="44" viewBox="0 0 44 44" fill="none" xmlns="http://www.w3.org/2000/svg">
<rect x="7.54541" y="15.4028" width="27.1331" height="8.78055" rx="4.39027" fill="#F0E3DA"/>
<rect x="7.54541" y="22.2588" width="27.1331" height="8.78055" rx="4.39027" fill="#F0E3DA"/>
<rect x="7.54541" y="28.333" width="27.1331" height="8.78055" rx="4.39027" fill="#F0E3DA"/>
<path d="M35.9883 31.0212C35.772 31.063 35.5403 30.9916 35.3859 30.8132C35.1555 30.5471 35.1843 30.1453 35.4499 29.915C37.0675 28.5125 37.6991 26.4801 36.8291 25.4775C36.5987 25.2113 36.6275 24.8095 36.893 24.5793C37.1586 24.349 37.5603 24.3772 37.7913 24.6432C39.1587 26.2203 38.4961 28.9585 36.2835 30.8773C36.1963 30.9531 36.0934 31.0009 35.9877 31.0213L35.9883 31.0212Z" fill="#23B169"/>
<path d="M37.5049 28.7548C37.4789 28.5562 37.3329 28.3879 37.1402 28.3337C35.0204 27.7436 32.3831 28.3728 30.2862 30.1915C28.0847 32.1003 27.0958 34.7848 27.5288 37.0371C29.6971 37.7845 32.494 37.1861 34.6961 35.2771C36.7931 33.4585 37.7901 30.9371 37.5057 28.7553L37.5049 28.7548Z" fill="#68C76F"/>
<path d="M21.1118 37.1138L21.1118 13.0977" stroke="#CE9167" stroke-width="1.81844" stroke-linecap="round"/>
<path d="M20.7282 15.214C19.8895 12.5663 17.3278 7.5583 13.791 8.70834C9.37006 10.1459 12.174 16.5802 20.7282 15.214Z" stroke="#CE9167" stroke-width="1.81844" stroke-linecap="round"/>
<path d="M21.4954 15.214C22.3341 12.5663 24.8958 7.5583 28.4326 8.70834C32.8536 10.1459 30.0496 16.5802 21.4954 15.214Z" stroke="#CE9167" stroke-width="1.81844" stroke-linecap="round"/>
</svg>
