<svg width="44" height="44" viewBox="0 0 44 44" fill="none" xmlns="http://www.w3.org/2000/svg">
<path d="M14.704 29.5727C14.657 29.5275 14.61 29.4841 14.563 29.4371C14.5159 29.39 14.4725 29.343 14.4273 29.296C14.2338 29.0862 14.0765 28.8747 13.9201 28.6631C13.3677 28.994 12.2845 29.598 11.0684 30.0447C11.3396 30.4244 11.5394 30.6477 11.5394 30.6477C11.7953 30.9633 12.081 31.2816 12.3993 31.5998C12.7176 31.9181 13.0358 32.2038 13.3523 32.4597C13.3523 32.4597 13.5774 32.6604 13.9554 32.9308C14.4029 31.7146 15.006 30.6315 15.3369 30.079C15.1254 29.9235 14.9138 29.7662 14.704 29.5727Z" fill="#3036D1"/>
<path d="M35.3896 16.452C36.15 16.3155 36.9773 16.2432 37.8797 16.2459C38.7241 16.2486 39.4113 15.565 39.4131 14.7205C39.4158 13.8752 38.7323 13.1889 37.8878 13.1871C36.5487 13.1835 35.2965 13.3173 34.1337 13.5867C33.7277 13.6835 33.3227 13.811 32.9312 13.9556C33.3715 14.5696 34.0008 15.5985 34.2992 16.7866C34.9348 16.5714 35.3887 16.4529 35.3896 16.452Z" fill="#3036D1"/>
<path d="M30.4136 9.86726C30.6831 8.7045 30.8169 7.45223 30.8133 6.11225C30.8115 5.26686 30.1243 4.58421 29.2789 4.58692C28.4344 4.58873 27.7509 5.2759 27.7536 6.12039C27.7554 7.02275 27.684 7.85006 27.5474 8.61046C27.5474 8.61046 27.4281 9.06436 27.2129 9.70089C28.401 10.0002 29.4299 10.6295 30.0438 11.0689C30.1876 10.6774 30.3169 10.2723 30.4136 9.86726Z" fill="#3036D1"/>
<path d="M17.2168 25.3927C18.441 23.5979 19.177 21.6124 19.6798 19.6802C18.6761 19.9415 17.6861 20.1422 16.7475 20.3077C16.5884 20.3357 16.4184 20.3899 16.2494 20.4406C15.5803 22.3773 14.6173 24.1386 13.1318 25.446C12.9944 25.579 12.8316 25.7074 12.6571 25.8303C11.8027 26.4343 10.5802 26.9162 9.70047 27.2137C9.06575 27.4289 8.61186 27.5473 8.61095 27.5473C7.85055 27.6839 7.02324 27.7562 6.12088 27.7535C5.27639 27.7508 4.58922 28.4343 4.58741 29.2788C4.5847 30.1242 5.26825 30.8105 6.11274 30.8123C7.45181 30.8159 8.70408 30.6821 9.86684 30.4126C10.2728 30.3159 10.6779 30.1884 11.0694 30.0437C12.2855 29.5962 13.3687 28.9931 13.9211 28.6622C14.168 28.5148 14.3099 28.4208 14.3099 28.4208C15.4193 27.6115 16.3904 26.6025 17.2177 25.3909L17.2168 25.3927Z" fill="#E32939"/>
<path d="M16.2454 37.8801C16.2436 36.9777 16.315 36.1504 16.4515 35.39C16.4515 35.39 16.5709 34.9361 16.7861 34.2996C17.0836 33.4207 17.5655 32.1983 18.1695 31.3439C18.2933 31.1694 18.4199 31.0066 18.5537 30.8692C19.8612 29.3836 21.6234 28.4198 23.5601 27.7507C23.6107 27.5825 23.665 27.4126 23.693 27.2534C23.8585 26.3149 24.0601 25.3239 24.3205 24.3203C22.3892 24.8221 20.4027 25.559 18.608 26.7833C17.9299 27.2462 17.315 27.7534 16.7626 28.305C16.3277 28.7399 15.9335 29.2019 15.5781 29.6911C15.5781 29.6911 15.485 29.833 15.3367 30.0799C15.0058 30.6323 14.4027 31.7155 13.9551 32.9316C13.8114 33.3231 13.683 33.7282 13.5862 34.1332C13.3168 35.296 13.183 36.5483 13.1866 37.8882C13.1884 38.7336 13.8756 39.4163 14.721 39.4136C15.5655 39.4118 16.2481 38.7246 16.2454 37.8801Z" fill="#E32939"/>
<path d="M28.4221 14.3091C28.4221 14.3091 28.5152 14.1671 28.6635 13.9203C27.6038 13.1382 26.5703 12.7973 25.8307 12.6562C25.7069 12.8308 25.5803 12.9935 25.4465 13.1309C24.139 14.6165 22.3768 15.5803 20.4401 16.2494C19.3723 16.6183 18.252 16.8977 17.1227 17.1228C16.8207 17.1834 16.5178 17.2413 16.2149 17.2946C14.9473 17.518 13.1362 18.2756 11.9473 19.4646C10.4047 21.0071 9.52499 22.9764 9.46984 25.0108C9.45989 25.3869 9.47798 25.8083 9.54217 26.264C9.56568 26.5886 9.62264 26.9059 9.7004 27.2142C10.5793 26.9168 11.8017 26.4348 12.657 25.8309C12.5368 25.1979 12.5476 24.7775 12.5476 24.7775C12.667 23.5442 13.2845 22.4556 14.1118 21.6292C14.601 21.14 15.4536 20.6816 16.2502 20.4411C16.4184 20.3905 16.5892 20.3362 16.7484 20.3082C17.6869 20.1427 18.677 19.9411 19.6806 19.6807C21.6119 19.1789 23.5983 18.442 25.3931 17.2178C26.0712 16.7548 26.6861 16.2476 27.2385 15.6961C27.6734 15.2612 28.0676 14.7991 28.423 14.31L28.4221 14.3091Z" fill="#3036D1"/>
<path d="M26.7062 27.7851C26.7596 27.4822 26.8174 27.1802 26.878 26.8773C27.1032 25.748 27.3826 24.6277 27.7514 23.5599C28.4205 21.6232 29.3835 19.8619 30.869 18.5544C31.0064 18.4215 31.1692 18.2931 31.3437 18.1702C31.2027 17.4305 30.8627 16.3971 30.0797 15.3374C29.8328 15.4848 29.6909 15.5788 29.6909 15.5788C28.5815 16.388 27.6104 17.3971 26.7831 18.6087C25.5588 20.4034 24.8229 22.389 24.3201 24.3212C24.0588 25.3248 23.8581 26.3158 23.6926 27.2543C23.6646 27.4125 23.6104 27.5834 23.5597 27.7516C23.3192 28.5482 22.8608 29.4008 22.3717 29.89C21.5452 30.7164 20.4566 31.3348 19.2233 31.4542C19.2233 31.4542 18.802 31.465 18.17 31.3439C17.566 32.1983 17.0841 33.4207 16.7866 34.2996C17.094 34.3773 17.4114 34.4343 17.736 34.4578H17.7369C18.1926 34.5211 18.6139 34.5392 18.9892 34.5301C21.0235 34.475 22.9928 33.5952 24.5353 32.0527C25.7243 30.8637 26.482 29.0518 26.7062 27.7851Z" fill="#3036D1"/>
<path d="M34.5295 18.9891C34.5394 18.613 34.5214 18.1916 34.4572 17.7359C34.4337 17.4113 34.3767 17.094 34.2989 16.7865C33.9997 15.5985 33.3704 14.5695 32.9309 13.9556C32.6597 13.5758 32.4599 13.3525 32.4599 13.3525C32.204 13.037 31.9183 12.7187 31.6 12.4004C31.2817 12.0822 30.9635 11.7964 30.647 11.5406C30.647 11.5406 30.4219 11.3398 30.0439 11.0695C29.43 10.6301 28.4011 9.99987 27.213 9.7015C26.9056 9.62374 26.5882 9.56677 26.2636 9.54327C25.8079 9.47997 25.3857 9.46189 25.0104 9.47093C22.9761 9.52609 21.0068 10.4058 19.4643 11.9483C18.2753 13.1373 17.5176 14.9493 17.2934 16.216C17.24 16.5189 17.1822 16.8209 17.1216 17.1238C18.2509 16.8987 19.3711 16.6193 20.439 16.2504C20.6795 15.4538 21.1379 14.6012 21.627 14.112C22.4535 13.2856 23.5421 12.6672 24.7754 12.5478C24.7754 12.5478 25.1967 12.537 25.8287 12.6581C26.5683 12.7992 27.6018 13.1391 28.6615 13.9221C28.873 14.0777 29.0846 14.2359 29.2944 14.4294C29.3414 14.4746 29.3884 14.518 29.4354 14.565C29.4824 14.612 29.5258 14.659 29.571 14.7061C29.7645 14.9158 29.9219 15.1274 30.0783 15.339C30.8604 16.3987 31.2013 17.4321 31.3423 18.1717C31.4626 18.8046 31.4517 19.2251 31.4517 19.2251C31.3324 20.4584 30.7148 21.547 29.8875 22.3734C29.3984 22.8625 28.5457 23.321 27.7492 23.5615C27.3803 24.6293 27.1009 25.7505 26.8757 26.8789C27.1777 26.8183 27.4806 26.7604 27.7835 26.7071C29.0512 26.4837 30.8622 25.726 32.0512 24.5371C33.5937 22.9946 34.4734 21.0253 34.5286 18.9909L34.5295 18.9891Z" fill="#E32939"/>
</svg>
