<svg width="44" height="44" viewBox="0 0 44 44" fill="none" xmlns="http://www.w3.org/2000/svg">
<g clip-path="url(#clip0_188_6571)">
<path d="M18.4198 32.9648L15.3804 29.9254L18.4632 26.8426C22.5707 29.7343 28.2934 29.3435 31.9667 25.6702C36.0916 21.5454 36.0916 14.8587 31.9667 10.7338C27.8419 6.60895 21.1552 6.60895 17.0303 10.7338C13.357 14.4071 12.9662 20.1299 15.858 24.2374L12.7752 27.3202L9.73581 24.2808C9.01505 23.56 7.85139 23.56 7.13063 24.2808C6.40986 25.0016 6.40986 26.1652 7.13063 26.886L10.17 29.9254L7.13063 32.9647C6.40986 33.6855 6.40986 34.8492 7.13063 35.5699C7.85139 36.2907 9.01505 36.2907 9.73582 35.5699L12.7752 32.5306L15.8146 35.5699C16.5354 36.2907 17.699 36.2907 18.4198 35.5699C19.1405 34.8492 19.1405 33.6855 18.4198 32.9648ZM19.6355 13.339C22.3189 10.6557 26.6782 10.6557 29.3616 13.339C32.0449 16.0224 32.0449 20.3817 29.3616 23.065C26.6782 25.7484 22.3275 25.7397 19.6442 23.0564C16.9609 20.373 16.9609 16.0137 19.6355 13.339Z" fill="#FF7B76"/>
<path d="M35.6845 31.3128C36.4309 29.2517 35.622 26.0482 35.1243 24.7041C33.8165 22.2397 21.9447 21.829 20.0778 23.6586C18.2108 25.4882 19.0695 31.761 20.7124 32.6198C22.3553 33.4785 34.7516 33.8893 35.6845 31.3128Z" fill="#372800"/>
<path d="M27.582 15.1279C30.555 15.128 33.1305 16.8207 34.4033 19.2939C34.4305 19.2932 34.458 19.292 34.4854 19.292C36.2094 19.2921 37.6072 20.69 37.6074 22.4141C37.6074 24.0491 36.3503 25.3899 34.75 25.5244C33.6503 28.4135 30.8571 30.4677 27.582 30.4678C24.3082 30.4678 21.5147 28.4156 20.4141 25.5283C18.7886 25.4193 17.5039 24.0671 17.5039 22.4141C17.5041 20.6899 18.9018 19.292 20.626 19.292C20.6705 19.292 20.7148 19.2931 20.7588 19.2949C22.0314 16.8209 24.6084 15.1279 27.582 15.1279Z" fill="#FFC9A8"/>
<path d="M17.0386 36.1092C17.0386 32.8417 19.6874 30.1929 22.9549 30.1929H32.4855C35.753 30.1929 38.4018 32.8417 38.4018 36.1092H17.0386Z" fill="#FF5252"/>
<path d="M25.4902 30.4674L25.4902 28.9331C25.4902 27.7018 26.4884 26.7036 27.7197 26.7036C28.9511 26.7036 29.9493 27.7018 29.9493 28.9331L29.9493 30.4674C29.9493 31.6987 28.9511 32.6969 27.7197 32.6969C26.4884 32.6969 25.4902 31.6987 25.4902 30.4674Z" fill="#FFC9A8"/>
<circle cx="25.1087" cy="22.9876" r="0.979766" fill="#372800"/>
<circle cx="30.3323" cy="22.9876" r="0.979766" fill="#372800"/>
<path d="M29.0689 25.3451C29.3167 25.3451 29.5104 25.581 29.4445 25.8201C29.2364 26.5769 28.5434 27.1328 27.7207 27.1328C26.8979 27.1328 26.2049 26.5769 25.9968 25.8201C25.9309 25.581 26.1246 25.3451 26.3724 25.3451L29.0689 25.3451Z" fill="#FF5700"/>
<path d="M19.9212 21.4386C19.077 20.6737 20.0312 18.4365 20.6138 17.4135C21.1964 16.3905 23.2146 13.7286 27.9699 13.7286C34.409 13.7286 36.4351 21.8703 34.9918 22.1479C33.8372 22.3699 32.2534 19.6087 31.6057 18.2004C28.0531 21.932 20.9765 22.3946 19.9212 21.4386Z" fill="#372800"/>
</g>
<defs>
<clipPath id="clip0_188_6571">
<rect width="44" height="44" fill="white"/>
</clipPath>
</defs>
</svg>
