<svg width="44" height="44" viewBox="0 0 44 44" fill="none" xmlns="http://www.w3.org/2000/svg">
<path d="M6.9715 7.05269C8.98804 3.92772 13.4377 3.60754 15.8811 6.41141L24.1813 15.9371C25.2355 17.419 25.2214 19.4084 24.1467 20.8754L14.8251 32.7762C14.445 33.2958 14.6407 34.0335 15.2286 34.2956L21.6686 37.1669C22.1508 37.3822 22.4606 37.8596 22.4606 38.3877V39.5064H9.65647C8.60046 39.5064 7.77193 38.5524 7.96947 37.5151C8.30275 35.7654 9.50855 34.1514 10.1564 31.5311C11.4333 26.3652 10.5037 22.2797 16.2406 18.7934L9.07042 15.0327C6.16076 13.5067 5.18901 9.81256 6.97056 7.05176L6.9715 7.05269Z" fill="#FFCCA8"/>
<path d="M39.461 25.1405C38.9744 24.6544 38.3277 24.386 37.64 24.3866H36.6594V23.4059C36.6594 22.7182 36.3921 22.0715 35.9055 21.5849C35.4194 21.0989 34.7722 20.8305 34.0845 20.8311C32.6648 20.8311 31.5096 21.9862 31.5096 23.4054V26.5928L27.3011 30.8013H24.1158C23.4281 30.8013 22.7815 31.0692 22.2954 31.5552C21.8088 32.0418 21.5415 32.6885 21.5415 33.3762C21.5415 34.0639 21.8093 34.7106 22.2954 35.1972C22.782 35.6838 23.4286 35.9516 24.1164 35.9511H25.097V36.9317C25.097 37.6194 25.3643 38.2661 25.8509 38.7527C26.337 39.2393 26.9841 39.5071 27.6719 39.5066C29.0916 39.5066 30.2467 38.3515 30.2467 36.9322V33.7449L34.4553 29.5363H37.6405C38.3283 29.5363 38.9749 29.269 39.461 28.7824C39.9476 28.2958 40.2149 27.6492 40.2149 26.9614C40.2149 26.2737 39.947 25.627 39.461 25.1405Z" fill="white"/>
</svg>
