<svg width="44" height="44" viewBox="0 0 44 44" fill="none" xmlns="http://www.w3.org/2000/svg">
<g clip-path="url(#clip0_188_6584)">
<path d="M20.1168 32.9507C26.7106 32.9507 32.056 27.4035 32.056 20.5606C32.056 13.7177 26.7106 8.17041 20.1168 8.17041C13.5231 8.17041 8.17773 13.7177 8.17773 20.5606C8.17773 27.4035 13.5231 32.9507 20.1168 32.9507Z" fill="#FFCCA8"/>
<path d="M10.4373 25.9305C12.7823 25.9305 14.6832 24.1476 14.6832 21.9484C14.6832 19.7491 12.7823 17.9663 10.4373 17.9663C8.09237 17.9663 6.19141 19.7491 6.19141 21.9484C6.19141 24.1476 8.09237 25.9305 10.4373 25.9305Z" fill="#FFCCA8"/>
<path d="M29.7952 25.9305C32.1402 25.9305 34.0411 24.1476 34.0411 21.9484C34.0411 19.7491 32.1402 17.9663 29.7952 17.9663C27.4503 17.9663 25.5493 19.7491 25.5493 21.9484C25.5493 24.1476 27.4503 25.9305 29.7952 25.9305Z" fill="#FFCCA8"/>
<path d="M17.1371 22.8316C17.7606 22.8316 18.2659 22.225 18.2659 21.4768C18.2659 20.7286 17.7606 20.1221 17.1371 20.1221C16.5137 20.1221 16.0083 20.7286 16.0083 21.4768C16.0083 22.225 16.5137 22.8316 17.1371 22.8316Z" fill="black"/>
<path d="M23.0961 22.8316C23.7195 22.8316 24.2249 22.225 24.2249 21.4768C24.2249 20.7286 23.7195 20.1221 23.0961 20.1221C22.4727 20.1221 21.9673 20.7286 21.9673 21.4768C21.9673 22.225 22.4727 22.8316 23.0961 22.8316Z" fill="black"/>
<path d="M21.5206 25.4614C21.7742 25.4614 21.9543 25.7047 21.8872 25.9496C21.6731 26.7269 20.9614 27.2972 20.1169 27.2972C19.2725 27.2972 18.5599 26.7261 18.3467 25.9496C18.2795 25.7047 18.4596 25.4614 18.7132 25.4614H21.5206Z" fill="#5C2F17"/>
<path d="M19.7405 11.5726C19.6986 12.1248 20.2445 12.526 20.7603 12.3254C21.9618 11.8578 23.5425 10.9509 23.529 9.41764C23.5077 6.94672 20.4522 7.12683 19.7279 7.26348C18.712 7.45544 17.531 8.14979 16.9994 8.48868C16.8944 8.55582 16.9188 8.7146 17.0397 8.74462C17.8502 8.94368 19.8874 9.63883 19.7397 11.5734L19.7405 11.5726Z" fill="#333333"/>
<path d="M25.1927 26.2986C25.1927 28.3227 22.9199 30.7778 20.1164 30.7778C17.3128 30.7778 15.04 28.3227 15.04 26.2986C15.04 24.2746 17.3128 23.4482 20.1164 23.4482C22.9199 23.4482 25.1927 24.2746 25.1927 26.2986Z" fill="#FFAD32"/>
<path d="M17.1753 26.8627C17.1753 26.7598 17.2588 26.6763 17.3618 26.6763H22.8724C22.9753 26.6763 23.0588 26.7598 23.0588 26.8627V27.8366C23.0588 29.4613 21.7417 30.7784 20.1171 30.7784V30.7784C18.4924 30.7784 17.1753 29.4613 17.1753 27.8366V26.8627Z" stroke="#FF9423" stroke-width="0.958874"/>
<circle cx="20.1164" cy="26.9743" r="2.25017" fill="#FF9423"/>
</g>
<path d="M37.6797 25.9038L38.3436 25.2399C38.7983 24.7852 38.9089 24.0533 38.5332 23.5317C38.0543 22.8671 37.1214 22.8116 36.5671 23.3659L35.8541 24.0789C35.7221 24.2109 35.5289 24.2455 35.3514 24.1875C34.1509 23.7968 32.7815 24.074 31.8276 25.0278L36.7304 29.9306C37.6843 28.9767 37.9618 27.607 37.5708 26.4069C37.5128 26.2293 37.5477 26.0358 37.6797 25.9038Z" fill="#FFD06C"/>
<path d="M37.2634 29.6013L32.1571 24.495C31.9425 24.2804 31.5946 24.2804 31.38 24.495L30.366 25.509C30.1515 25.7235 30.1515 26.0714 30.366 26.286L35.4723 31.3923C35.6869 31.6069 36.0348 31.6069 36.2494 31.3923L37.2634 30.3783C37.4779 30.1637 37.4779 29.8158 37.2634 29.6013Z" fill="#FF9423"/>
<path d="M26.9455 39.3083L22.368 34.7308C21.6087 33.9715 21.5792 32.7501 22.3011 31.9549L27.4166 26.3192C28.1894 25.4681 29.5168 25.4358 30.3298 26.2487L35.4279 31.3469C36.2409 32.1598 36.2089 33.4876 35.3575 34.2601L29.7218 39.3756C28.9269 40.0971 27.7048 40.0676 26.9455 39.3083Z" fill="#E7F2FF"/>
<defs>
<clipPath id="clip0_188_6584">
<rect width="31.5975" height="31.5975" fill="white" transform="translate(4.31787 4.27344)"/>
</clipPath>
</defs>
</svg>
