<svg width="44" height="44" viewBox="0 0 44 44" fill="none" xmlns="http://www.w3.org/2000/svg">
<path d="M41.6075 34.0034C41.6075 38.1697 32.8289 41.439 22.0001 41.439C11.1713 41.439 2.39307 38.1697 2.39307 34.0034C2.39307 29.8371 11.1713 26.3516 22.0001 26.3516C32.8289 26.3516 41.6075 29.8371 41.6075 34.0034Z" fill="#FFCCA8"/>
<path d="M24.8349 33.9745C24.8052 35.6864 21.1733 37.0429 16.7237 36.9655C12.2741 36.8882 8.69179 35.4062 8.72156 33.6943C8.75132 31.9824 12.3819 30.6887 16.8315 30.7661C21.2811 30.8434 24.8647 32.2625 24.8349 33.9745Z" fill="#FF4B5B" fill-opacity="0.7"/>
<rect x="12.4609" y="27.6904" width="8.52148" height="6.45117" rx="3.22559" transform="rotate(-1.9942 12.4609 27.6904)" fill="#353535"/>
<path d="M15.0503 18.4728C11.532 21.8639 11.0904 26.9921 11.3094 29.1324C11.2556 31.8021 20.8553 30.5822 21.5665 30.3045C22.2777 30.0269 26.1001 25.4454 27.9258 24.0392C29.7514 22.633 29.0347 20.9584 29.6278 19.571C30.221 18.1836 38.0042 10.4403 38.6666 9.84809C39.329 9.25588 41.1133 7.8444 39.5235 5.93913C38.2517 4.41491 37.1303 4.49488 36.7285 4.72539C30.9684 7.89489 18.5685 15.0817 15.0503 18.4728Z" fill="#D9D9D9"/>
<path d="M25.7652 17.4044C22.2096 19.7062 18.3431 24.5629 16.8543 26.7035C16.4577 27.2735 16.2756 28.1995 16.9211 28.341C17.7846 28.5303 20.744 28.4245 21.4231 28.0825C22.1023 27.7405 25.8909 23.5489 26.5928 22.7587C27.2946 21.9686 27.1965 19.8326 26.8041 18.3495C26.4903 17.163 25.9808 17.225 25.7652 17.4044Z" fill="#353535"/>
<path fill-rule="evenodd" clip-rule="evenodd" d="M7.56369 21.1951L6.44429 22.7775L4.34635 20.6286C4.00291 20.2769 3.41644 20.612 3.54509 21.0865L5.14286 26.9751C5.24852 27.3643 5.75949 27.4548 5.99234 27.1256L7.11174 25.5432L9.20968 27.6921C9.55312 28.0437 10.1396 27.7087 10.0109 27.2342L8.41317 21.3456C8.30751 20.9564 7.79654 20.8659 7.56369 21.1951Z" fill="#FF4B5B"/>
<path fill-rule="evenodd" clip-rule="evenodd" d="M32.0535 30.4205L30.4292 29.3628L32.4958 27.1837C32.834 26.827 32.4766 26.2539 32.0074 26.4007L26.1846 28.2239C25.7998 28.3444 25.729 28.8585 26.0669 29.0785L27.6913 30.1362L25.6247 32.3153C25.2865 32.672 25.6438 33.2451 26.1131 33.0983L31.9358 31.2751C32.3206 31.1546 32.3914 30.6405 32.0535 30.4205Z" fill="#FF4B5B"/>
</svg>
