<svg width="44" height="44" viewBox="0 0 44 44" fill="none" xmlns="http://www.w3.org/2000/svg">
<g clip-path="url(#clip0_188_6582)">
<path d="M28.772 27.5705C26.8502 25.3282 26.4167 21.3774 26.4167 21.3774H8.85736C8.85736 21.3774 8.42386 25.3282 6.50201 27.5705C4.57931 29.8137 3.83216 33.9778 6.50201 37.1815H28.772C31.4419 33.9778 30.6947 29.8137 28.772 27.5705Z" fill="#372800"/>
<path d="M24.4546 32.0399L20.8727 30.6791C18.7817 29.8843 16.4714 29.8843 14.3804 30.6791L10.7985 32.0399C9.07472 32.6953 7.64672 33.9252 6.74317 35.5003C6.37172 36.1463 6.13712 36.862 5.95947 37.5862L5.50132 39.4468C5.43247 39.7282 5.64497 40.0002 5.93482 40.0002H29.3192C29.609 40.0002 29.8215 39.7282 29.7527 39.4468L29.2945 37.5862C29.116 36.8628 28.8814 36.1471 28.5108 35.5003C27.6064 33.9252 26.1784 32.6944 24.4546 32.0399Z" fill="#427EFF"/>
<path d="M26.8425 23.8663C26.2305 24.4103 25.4995 24.7248 24.743 24.8183C23.774 26.9858 21.853 28.6263 19.507 29.2043V30.9383C19.507 31.9668 18.6655 32.7998 17.637 32.7998C16.6085 32.7998 15.767 31.9668 15.767 30.9383V29.2128C13.421 28.6348 11.4915 27.0028 10.5225 24.8353C9.64697 24.8098 8.77997 24.4953 8.08297 23.8663C6.51047 22.4468 7.23711 18.8699 7.81097 18.4688C8.38483 18.0677 8.50797 18.4141 8.50797 19.0978C8.50797 19.7815 8.51647 19.1063 8.51647 19.1063C8.65247 22.1663 10.3695 24.4188 10.3695 24.4188C10.3695 23.2118 10.667 22.2258 11.0835 21.4268C11.687 20.2538 12.5289 19.4648 13.1834 19.0228L14.0797 18.5121L16.2685 17.3213C16.2685 17.3213 16.6935 17.5848 17.399 17.9588C18.096 18.3243 19.082 18.8003 20.1955 19.2253C20.1955 19.2253 22.2185 20.0838 23.5785 21.6648C24.2585 22.4468 24.7685 23.4158 24.7685 24.5463C24.7685 24.5463 26.1285 22.4808 26.4005 19.1148L26.4175 19.0893C26.4251 18.5029 26.4175 18.1808 27.106 18.4688C27.7945 18.7568 28.4065 22.4468 26.8425 23.8663Z" fill="#FFD2BD"/>
<path d="M15.4396 22.782C15.8973 22.782 16.2683 22.3367 16.2683 21.7875C16.2683 21.2382 15.8973 20.793 15.4396 20.793C14.9819 20.793 14.6108 21.2382 14.6108 21.7875C14.6108 22.3367 14.9819 22.782 15.4396 22.782Z" fill="black"/>
<path d="M19.8146 22.782C20.2723 22.782 20.6433 22.3367 20.6433 21.7875C20.6433 21.2382 20.2723 20.793 19.8146 20.793C19.3569 20.793 18.9858 21.2382 18.9858 21.7875C18.9858 22.3367 19.3569 22.782 19.8146 22.782Z" fill="black"/>
<path d="M18.6679 24.854C18.854 24.854 18.9866 25.0325 18.9373 25.2127C18.7801 25.7831 18.2582 26.2021 17.6377 26.2021C17.0172 26.2021 16.4953 25.7831 16.338 25.2127C16.2887 25.0334 16.4213 24.854 16.6075 24.854H18.6687H18.6679Z" fill="#FF5700"/>
<path d="M26.4345 18.5537C26.426 18.6727 26.4175 18.7832 26.409 18.8937C26.409 18.9702 26.4005 19.0382 26.4005 19.1147C26.1285 22.4807 24.7685 24.5462 24.7685 24.5462C24.7685 23.4157 24.2585 22.4467 23.5785 21.6647C22.2185 20.0837 20.1955 19.2252 20.1955 19.2252C17.9685 18.3837 16.2685 17.3212 16.2685 17.3212L14.0925 18.5537C14.0925 18.5537 13.7185 18.7067 13.217 19.0467C12.5625 19.4887 11.687 20.2537 11.0835 21.4267C10.667 22.2257 10.3695 23.2117 10.3695 24.4187C10.3695 24.4187 8.65251 22.1662 8.51651 19.1062C8.50801 19.0722 8.50801 19.0382 8.50801 19.0042C8.50801 18.9022 8.49951 18.8087 8.49951 18.7067H8.51651C8.52501 18.5877 8.51651 18.4687 8.52501 18.3497C8.78001 15.6552 10.2505 13.2922 12.384 11.8217C13.574 11.0057 14.968 10.4617 16.464 10.3002C21.615 9.7477 25.9925 13.6152 26.4005 18.5537H26.4345Z" fill="#372800"/>
<path d="M21.044 35.9679L18.0741 38.415C17.82 38.6241 17.4545 38.6241 17.2003 38.415L14.2304 35.9679C13.9142 35.7069 13.4493 35.7384 13.1705 36.0384L9.48828 39.9994H25.7862L22.104 36.0384C21.8252 35.7384 21.3602 35.7078 21.044 35.9679Z" fill="#427EFF"/>
<path d="M36 11.7747C36 11.939 35.8873 12.0798 35.7277 12.1174L33.2817 12.6667C32.6807 12.7982 32.1972 13.4179 32.0845 14.1972L31.6479 17.2442C31.6197 17.4179 31.4742 17.5447 31.2957 17.5447C31.122 17.5447 30.9718 17.4179 30.9483 17.2442L30.507 14.1972C30.3943 13.4179 29.9155 12.7982 29.3145 12.6667L26.8685 12.1174C26.7089 12.0798 26.5962 11.939 26.5962 11.7747C26.5962 11.6104 26.7089 11.4648 26.8685 11.4273L29.3145 10.8827C29.9155 10.7465 30.3943 10.1315 30.507 9.34744L30.9483 6.30047C30.9718 6.12676 31.122 6 31.2957 6C31.4742 6 31.6197 6.12676 31.6479 6.30047L32.0845 9.34744C32.1408 9.74181 32.2911 10.0892 32.4976 10.3568C32.7089 10.6244 32.9812 10.8122 33.2817 10.8827L35.7277 11.4273C35.8873 11.4648 36 11.6104 36 11.7747Z" fill="#69A7FF"/>
<path d="M8.49961 27.0907C8.49961 27.1916 8.43045 27.278 8.3296 27.3011L7.28075 27.5345C7.05023 27.5892 6.86294 27.8313 6.81683 28.1396L6.62954 29.4478C6.61513 29.5544 6.52292 29.6322 6.41631 29.6322C6.30681 29.6322 6.21749 29.5544 6.20308 29.4478L6.0129 28.1396C5.9668 27.8313 5.78239 27.5892 5.54899 27.5345L4.50013 27.3011C4.40216 27.278 4.33301 27.1916 4.33301 27.0907C4.33301 26.9899 4.40216 26.9005 4.50013 26.8775L5.54899 26.6441C5.78239 26.5922 5.9668 26.3473 6.0129 26.039L6.20308 24.7308C6.21749 24.6242 6.30681 24.5464 6.41631 24.5464C6.52292 24.5464 6.61513 24.6242 6.62954 24.7308L6.81683 26.039C6.86294 26.3473 7.05023 26.5922 7.28075 26.6441L8.3296 26.8775C8.43045 26.9005 8.49961 26.9899 8.49961 27.0907Z" fill="#D06BFF"/>
<path d="M9.26958 11.3523C9.26958 11.5166 9.1569 11.6574 8.99728 11.695L7.63107 12.0002C7.35408 12.0612 7.13342 12.357 7.08177 12.7326L6.83295 14.4368C6.80947 14.6058 6.65924 14.7373 6.48553 14.7373C6.31182 14.7373 6.16158 14.6058 6.13811 14.4368L5.88928 12.7326C5.83763 12.357 5.61698 12.0612 5.33998 12.0002L3.97377 11.695C3.81415 11.6574 3.69678 11.5166 3.69678 11.3523C3.69678 11.188 3.81415 11.0424 3.97377 11.0096L5.33998 10.6997C5.61698 10.6387 5.83763 10.3476 5.88928 9.97199L6.13811 8.26776C6.16158 8.09405 6.31182 7.96729 6.48553 7.96729C6.65924 7.96729 6.80947 8.09405 6.83295 8.26776L7.08177 9.97199C7.13342 10.3476 7.35408 10.6387 7.63107 10.6997L8.99728 11.0096C9.1569 11.0424 9.26958 11.188 9.26958 11.3523Z" fill="#FFCD00"/>
</g>
<path d="M34.4791 14.2809C34.5706 14.1893 34.6972 14.1328 34.8367 14.1328C35.1163 14.1328 35.3423 14.3588 35.3423 14.6385V26.8791C35.3423 27.1588 35.1163 27.3848 34.8367 27.3848C34.557 27.3848 34.331 27.1588 34.331 26.8791L34.331 14.6385C34.331 14.499 34.3875 14.3724 34.4791 14.2809Z" fill="#C0C7D1"/>
<path d="M38.8536 33.019L30.819 33.019L30.819 23.6134C30.819 22.9626 31.1144 22.3475 31.6225 21.9409L33.4971 20.4397C34.2799 19.8128 35.3927 19.8128 36.1755 20.4397L38.05 21.9409C38.5578 22.3478 38.8532 22.9629 38.8536 23.6134L38.8536 33.019Z" fill="#E5E9EE"/>
<path d="M36.269 36.8803V32.8345H33.4046V36.8803H36.269Z" fill="#C0C7D1"/>
<path d="M40.2593 33.3311V32.4067C40.2593 32.267 40.1461 32.1538 40.0064 32.1538H29.6669C29.5273 32.1538 29.414 32.267 29.414 32.4067V33.3311C29.414 33.4708 29.5273 33.584 29.6669 33.584H40.0064C40.1461 33.584 40.2593 33.4708 40.2593 33.3311Z" fill="#D0D5DA"/>
<path d="M37.3979 37.6221V36.6977C37.3979 36.558 37.2847 36.4448 37.1451 36.4448H32.5268C32.3872 36.4448 32.274 36.558 32.274 36.6977V37.6221C32.274 37.7618 32.3872 37.875 32.5268 37.875H37.1451C37.2847 37.875 37.3979 37.7618 37.3979 37.6221Z" fill="#D0D5DA"/>
<path d="M38.8542 23.6137C38.8542 22.9629 38.5588 22.3478 38.0507 21.9413L35.4691 19.874C35.0997 19.5782 34.5741 19.5782 34.2047 19.874L31.6232 21.9413C31.1157 22.3478 30.82 22.9633 30.82 23.6134L30.82 27.0371L38.8545 27.0371L38.8542 23.6137Z" fill="#69A7FF"/>
<defs>
<clipPath id="clip0_188_6582">
<rect width="34" height="34" fill="white" transform="translate(2 6)"/>
</clipPath>
</defs>
</svg>
