<svg width="44" height="44" viewBox="0 0 44 44" fill="none" xmlns="http://www.w3.org/2000/svg">
<g clip-path="url(#clip0_188_6570)">
<path d="M13.2015 36.1332C17.7002 36.1332 21.3474 32.486 21.3474 27.9873H5.05566C5.05566 32.4868 8.70287 36.1332 13.2015 36.1332Z" fill="#FFCCA8"/>
<path d="M21.3482 19.2424C21.3482 18.3291 20.6264 17.5895 19.7368 17.5895C18.8473 17.5895 18.1246 18.3291 18.1246 19.2424V23.5334H17.7103V16.7355C17.7103 15.8442 16.9885 15.1207 16.0981 15.1207C15.2077 15.1207 14.4867 15.8434 14.4867 16.7355V23.5334H14.0724V15.6756C14.0724 14.7657 13.3506 14.0278 12.4602 14.0278C11.5698 14.0278 10.848 14.7657 10.848 15.6756V23.5334H10.4345V17.2667C10.4345 16.3568 9.71273 15.6189 8.82316 15.6189C7.9336 15.6189 7.21094 16.3568 7.21094 17.2667V17.2684V27.5721H7.56168V27.9863H21.3474V27.5721V19.2415L21.3482 19.2424Z" fill="#FFCCA8"/>
<path d="M8.80092 24.8889V27.7016C10.3793 28.1269 11.6975 29.1723 12.4964 30.555C12.0796 28.847 10.9545 27.4195 9.43633 26.6138V24.8855C9.43633 23.8519 8.5976 23.0132 7.56401 23.0132C7.44964 23.0132 7.3378 23.0276 7.22852 23.0471C8.11893 23.1919 8.80092 23.9578 8.80092 24.8889Z" fill="#E68E51"/>
<path d="M12.4958 30.555C11.6977 29.1724 10.3786 28.1269 8.8003 27.7016V24.8889C8.8003 23.9578 8.1183 23.1911 7.22789 23.0471C7.12962 23.031 7.03049 23.0166 6.92798 23.0166C5.89355 23.0166 5.05566 23.8553 5.05566 24.8889V27.9863L7.2118 28.9064V29.7849L11.3504 33.5888H13.315C13.315 32.4816 13.0117 31.4488 12.495 30.5542L12.4958 30.555Z" fill="#FFCCA8"/>
<path d="M36.4374 27.9872V27.5729H36.7882V17.2692V17.2675C36.7882 16.3576 36.0663 15.6197 35.1759 15.6197C34.2855 15.6197 33.5645 16.3576 33.5645 17.2675V23.5343H33.1511V15.6756C33.1511 14.7657 32.4293 14.0278 31.5389 14.0278C30.6485 14.0278 29.9267 14.7657 29.9267 15.6756V23.5334H29.5124V16.7355C29.5124 15.8442 28.7906 15.1207 27.901 15.1207C27.0114 15.1207 26.2888 15.8434 26.2888 16.7355V23.5334H25.8745V19.2424C25.8745 18.3291 25.1527 17.5895 24.2623 17.5895C23.3718 17.5895 22.6509 18.3291 22.6509 19.2424V27.5729V27.9872C22.6509 32.4867 26.2981 36.133 30.7967 36.133C35.2954 36.133 38.9426 32.4858 38.9426 27.9872H36.4357H36.4374Z" fill="#FFCCA8"/>
<path d="M35.1994 27.7016V24.8889C35.1994 23.9578 35.8814 23.1911 36.7718 23.0471C36.6625 23.0276 36.5515 23.0132 36.4363 23.0132C35.4027 23.0132 34.564 23.8519 34.564 24.8855V26.6138C33.0458 27.4195 31.9207 28.847 31.5039 30.555C32.302 29.1723 33.6211 28.1269 35.1994 27.7016Z" fill="#E68E51"/>
<path d="M37.0715 23.0166C36.969 23.0166 36.8699 23.031 36.7716 23.0471C35.8812 23.192 35.1992 23.9578 35.1992 24.8889V27.7016C33.6208 28.1269 32.3026 29.1724 31.5037 30.555C30.9877 31.4497 30.6836 32.4816 30.6836 33.5897H32.6483L36.7868 29.7858V28.9072L38.943 27.9871V24.8898C38.943 23.8553 38.1042 23.0174 37.0707 23.0174L37.0715 23.0166Z" fill="#FFCCA8"/>
<path d="M21.0217 25.6924C21.6159 26.0851 22.3832 26.0851 22.9774 25.6924C24.864 24.4456 28.9754 21.4678 30.7456 18.1346C33.0803 13.7376 30.3386 9.35205 26.7154 9.35205C24.6498 9.35205 23.4069 10.4313 22.7198 11.3589C22.3579 11.8477 21.6423 11.8477 21.2798 11.3589C20.5927 10.4313 19.3498 9.35205 17.2842 9.35205C13.661 9.35205 10.9194 13.7376 13.2541 18.1346C15.0237 21.4672 19.1351 24.4456 21.0217 25.6924Z" fill="#80C8FF"/>
<path d="M25.7643 14.9526L20.6732 19.6759C19.8856 20.4067 19.8394 21.6375 20.5702 22.4251C21.3009 23.2127 22.5317 23.2589 23.3193 22.5282L28.4104 17.8048C29.1981 17.0741 29.2442 15.8433 28.5135 15.0557C27.7827 14.268 26.5519 14.2219 25.7643 14.9526Z" fill="#BEE3FF"/>
<path d="M24.2338 17.0422L22.872 18.3056C22.5929 18.5645 22.5766 19.0006 22.8355 19.2797L23.8764 20.4016C24.1353 20.6807 24.5714 20.6971 24.8505 20.4381L26.2122 19.1748C26.4913 18.9158 26.5076 18.4797 26.2487 18.2007L25.2078 17.0787C24.9489 16.7997 24.5128 16.7833 24.2338 17.0422Z" fill="#FFE3A0"/>
</g>
<defs>
<clipPath id="clip0_188_6570">
<rect width="36.2578" height="36.2578" fill="white" transform="translate(3.87109 5)"/>
</clipPath>
</defs>
</svg>
