<svg width="44" height="44" viewBox="0 0 44 44" fill="none" xmlns="http://www.w3.org/2000/svg">
<path d="M36 6H8C6.89543 6 6 6.89543 6 8V36C6 37.1046 6.89543 38 8 38H36C37.1046 38 38 37.1046 38 36V8C38 6.89543 37.1046 6 36 6Z" fill="#333D4B"/>
<path d="M18.3188 20.8151C15.5858 20.8151 13.8428 18.4911 13.7668 18.3881C13.5218 18.0551 13.5928 17.5851 13.9268 17.3401C14.2608 17.0931 14.7278 17.1661 14.9738 17.4981C14.9878 17.5171 16.4288 19.4421 18.5408 19.3081C18.9468 19.2901 19.3108 19.5931 19.3388 20.0071C19.3658 20.4211 19.0538 20.7781 18.6408 20.8051C18.5328 20.8121 18.4248 20.8151 18.3188 20.8151Z" fill="#ABB5C3"/>
<path d="M17.789 25.1422C11.787 25.1422 10.352 20.5722 10.338 20.5242C10.22 20.1272 10.445 19.7092 10.843 19.5912C11.241 19.4712 11.655 19.6982 11.775 20.0912C11.825 20.2532 13.041 23.9872 18.542 23.6162C18.956 23.5792 19.313 23.8992 19.341 24.3132C19.369 24.7262 19.057 25.0842 18.644 25.1122C18.35 25.1322 18.065 25.1422 17.79 25.1422H17.789Z" fill="white"/>
<path d="M16.5898 29.1551C12.3098 29.1551 9.3458 27.3721 9.2018 27.2841C8.8488 27.0681 8.7388 26.6071 8.9548 26.2541C9.1718 25.9001 9.6358 25.7911 9.9848 26.0041C10.0208 26.0261 13.6548 28.1921 18.4888 27.5241C18.8928 27.4671 19.2768 27.7531 19.3348 28.1641C19.3918 28.5751 19.1058 28.9531 18.6938 29.0101C17.9648 29.1111 17.2598 29.1551 16.5898 29.1551Z" fill="white"/>
<path d="M15.9178 34.0309C12.6848 34.0309 11.0718 32.4039 10.9898 32.3179C10.7028 32.0199 10.7118 31.5449 11.0098 31.2569C11.3068 30.9719 11.7798 30.9789 12.0668 31.2739C12.1548 31.3619 14.0848 33.2219 18.1598 32.2519C18.5608 32.1539 18.9678 32.4039 19.0628 32.8079C19.1588 33.2109 18.9108 33.6149 18.5068 33.7109C17.5508 33.9389 16.6888 34.0309 15.9178 34.0309Z" fill="#ABB5C3"/>
<path d="M8.70482 16.3621C8.36882 16.3621 8.06282 16.1341 7.97782 15.7941C7.87682 15.3921 8.12182 14.9851 8.52382 14.8851L17.9358 12.5361C18.3328 12.4361 18.7458 12.6801 18.8448 13.0821C18.9458 13.4841 18.7008 13.8911 18.2988 13.9911L8.88682 16.3401C8.82582 16.3551 8.76582 16.3621 8.70482 16.3621Z" fill="#ABB5C3"/>
<path d="M25.4207 20.8048C25.3147 20.8048 25.2067 20.8008 25.0987 20.7938C24.6857 20.7658 24.3727 20.4088 24.4007 19.9958C24.4287 19.5828 24.7947 19.2768 25.1987 19.2968C27.2817 19.4338 28.7497 17.5078 28.7647 17.4888C29.0087 17.1558 29.4797 17.0838 29.8127 17.3298C30.1467 17.5758 30.2177 18.0448 29.9717 18.3788C29.8967 18.4818 28.1527 20.8048 25.4207 20.8048Z" fill="#ABB5C3"/>
<path d="M25.9508 25.1309C25.6758 25.1309 25.3908 25.1219 25.0968 25.1009C24.6838 25.0729 24.3708 24.7149 24.3998 24.3019C24.4268 23.8879 24.7928 23.5659 25.1988 23.6049C30.6808 23.9719 31.9168 20.2389 31.9658 20.0799C32.0888 19.6859 32.5088 19.4639 32.9018 19.5829C33.2968 19.7029 33.5208 20.1169 33.4028 20.5129C33.3878 20.5609 31.9518 25.1309 25.9508 25.1309Z" fill="white"/>
<path d="M27.2697 29.1552C26.6047 29.1552 25.9067 29.1122 25.1797 29.0102C24.7687 28.9532 24.4827 28.5752 24.5387 28.1642C24.5967 27.7542 24.9787 27.4672 25.3847 27.5242C30.2127 28.1912 33.7077 26.0232 33.7427 26.0012C34.0957 25.7772 34.5557 25.8842 34.7767 26.2322C34.9997 26.5812 34.8967 27.0442 34.5477 27.2662C34.4097 27.3542 31.5337 29.1542 27.2687 29.1542L27.2697 29.1552Z" fill="white"/>
<path d="M27.822 34.02C27.051 34.02 26.188 33.928 25.232 33.7C24.829 33.604 24.581 33.2 24.676 32.797C24.772 32.394 25.176 32.144 25.579 32.241C29.669 33.215 31.593 31.343 31.673 31.263C31.964 30.972 32.437 30.966 32.732 31.255C33.026 31.543 33.036 32.012 32.75 32.308C32.668 32.393 31.055 34.02 27.822 34.02Z" fill="#ABB5C3"/>
<path d="M35.0769 16.3618C35.0159 16.3618 34.9549 16.3548 34.8939 16.3398L25.4399 13.9808C25.0389 13.8808 24.7939 13.4738 24.8939 13.0718C24.9949 12.6698 25.4059 12.4258 25.8029 12.5258L35.2569 14.8848C35.6579 14.9848 35.9029 15.3918 35.8029 15.7938C35.7179 16.1348 35.4129 16.3618 35.0769 16.3618Z" fill="#ABB5C3"/>
<path d="M22.082 12.84C21.668 12.84 21.332 12.504 21.332 12.09V8.62305C21.332 8.20905 21.668 7.87305 22.082 7.87305C22.496 7.87305 22.832 8.20905 22.832 8.62305V12.09C22.832 12.504 22.496 12.84 22.082 12.84Z" fill="#ABB5C3"/>
<path d="M22.082 18.3641C21.668 18.3641 21.332 18.0281 21.332 17.6141V15.3301C21.332 14.9161 21.668 14.5801 22.082 14.5801C22.496 14.5801 22.832 14.9161 22.832 15.3301V17.6141C22.832 18.0281 22.496 18.3641 22.082 18.3641Z" fill="#ABB5C3"/>
<path d="M22.082 23.888C21.668 23.888 21.332 23.552 21.332 23.138V20.854C21.332 20.44 21.668 20.104 22.082 20.104C22.496 20.104 22.832 20.44 22.832 20.854V23.138C22.832 23.552 22.496 23.888 22.082 23.888Z" fill="white"/>
<path d="M22.082 29.4119C21.668 29.4119 21.332 29.0759 21.332 28.6619V26.3779C21.332 25.9639 21.668 25.6279 22.082 25.6279C22.496 25.6279 22.832 25.9639 22.832 26.3779V28.6619C22.832 29.0759 22.496 29.4119 22.082 29.4119Z" fill="white"/>
<path d="M22.082 35.9459C21.668 35.9459 21.332 35.6099 21.332 35.1959V31.9019C21.332 31.4879 21.668 31.1519 22.082 31.1519C22.496 31.1519 22.832 31.4879 22.832 31.9019V35.1959C22.832 35.6099 22.496 35.9459 22.082 35.9459Z" fill="#ABB5C3"/>
<path d="M6 11.95L13.9 10.062C15.213 9.748 16.166 8.633 16.25 7.309L16.334 6H8C6.895 6 6 6.895 6 8V11.95Z" fill="white"/>
<path d="M38 11.95L30.1 10.062C28.787 9.748 27.834 8.633 27.75 7.309L27.666 6H36C37.105 6 38 6.895 38 8V11.95Z" fill="white"/>
</svg>
