<svg width="44" height="44" viewBox="0 0 44 44" fill="none" xmlns="http://www.w3.org/2000/svg">
<g clip-path="url(#clip0_188_6574)">
<path d="M24.3629 19.4126L30.3709 13.4046L30.3709 17.9643C30.3616 18.5156 30.5951 19.0108 30.9502 19.3658C31.3053 19.7209 31.8005 19.9545 32.3517 19.9451C33.445 19.9545 34.3326 19.0668 34.3326 17.9643L34.3326 8.62066C34.3326 8.35904 34.2765 8.09742 34.1738 7.86382C34.1738 7.84514 34.1644 7.83579 34.1644 7.83579C34.0616 7.6022 33.9308 7.39664 33.7533 7.21911C33.5758 7.04159 33.3702 6.91078 33.1366 6.808C33.1366 6.808 33.1273 6.79865 33.1086 6.79865C32.875 6.69587 32.6134 6.63981 32.3518 6.63981L23.0081 6.63981C21.9056 6.63981 21.0179 7.52746 21.0273 8.62066C21.0273 9.72321 21.9056 10.6015 23.0081 10.6015H27.5678L21.5599 16.6095C17.1403 13.498 10.9829 13.9185 7.03052 17.8709C2.59229 22.3091 2.59229 29.5037 7.03052 33.9419C11.4687 38.3801 18.6633 38.3801 23.1016 33.9419C27.0539 29.9895 27.4744 23.8321 24.3629 19.4126ZM9.8336 31.1388C6.94642 28.2516 6.94642 23.5611 9.8336 20.6739C12.7208 17.7868 17.4019 17.7961 20.2891 20.6833C23.1763 23.5705 23.1763 28.261 20.2985 31.1388C17.4206 34.0166 12.7208 34.026 9.8336 31.1388Z" fill="#88C5FF"/>
<path fill-rule="evenodd" clip-rule="evenodd" d="M25.7451 14.9727C28.9033 14.9727 31.6402 16.7711 32.9922 19.3984C33.0208 19.3977 33.0494 19.3965 33.0781 19.3965C34.9097 19.3965 36.3944 20.8814 36.3945 22.7129C36.3945 24.4495 35.0599 25.8734 33.3604 26.0166C32.1923 29.0857 29.2242 31.2676 25.7451 31.2676C22.2676 31.2675 19.3009 29.0875 18.1318 26.0205C16.4054 25.9045 15.041 24.4687 15.041 22.7129C15.0412 20.8814 16.5259 19.3965 18.3574 19.3965C18.4042 19.3965 18.4507 19.3985 18.4971 19.4004C19.8487 16.7719 22.5861 14.9727 25.7451 14.9727Z" fill="#FFC9A8"/>
<path d="M14.5454 37.2601C14.5454 33.7893 17.3591 30.9756 20.8299 30.9756H30.9536C34.4245 30.9756 37.2381 33.7893 37.2381 37.2601H14.5454Z" fill="#427EFF"/>
<path d="M23.5234 31.267L23.5234 29.6373C23.5234 28.3293 24.5837 27.269 25.8917 27.269C27.1997 27.269 28.26 28.3293 28.26 29.6373L28.26 31.267C28.26 32.575 27.1997 33.6353 25.8917 33.6353C24.5837 33.6353 23.5234 32.575 23.5234 31.267Z" fill="#FFC9A8"/>
<path d="M18.5406 22.2184C17.9618 22.1072 17.8348 21.3734 17.8437 21.0204C17.8437 16.0067 21.4085 12.8872 25.9765 12.8872C30.5445 12.8872 33.3856 16.6196 33.8591 18.7087C34.3326 20.7977 32.6335 21.4103 31.5194 21.4103C30.6281 21.4103 30.1267 19.089 29.9874 17.9284C29.7275 18.3648 28.8231 19.2821 27.2856 19.4603C25.3637 19.6832 24.4445 19.1263 22.9961 18.9592C21.5477 18.7921 20.2107 21.0204 20.0715 21.4103C19.9322 21.8003 19.2641 22.3573 18.5406 22.2184Z" fill="#372800"/>
<circle cx="23.1184" cy="23.3225" r="1.04074" fill="#372800"/>
<circle cx="28.6667" cy="23.3225" r="1.04074" fill="#372800"/>
<path d="M27.3245 25.8266C27.5878 25.8266 27.7935 26.0772 27.7235 26.3312C27.5024 27.1351 26.7663 27.7256 25.8924 27.7256C25.0184 27.7256 24.2823 27.1351 24.0612 26.3312C23.9912 26.0772 24.1969 25.8266 24.4602 25.8266L27.3245 25.8266Z" fill="#FF5700"/>
</g>
<defs>
<clipPath id="clip0_188_6574">
<rect width="44" height="44" fill="white"/>
</clipPath>
</defs>
</svg>
