<svg width="62" height="62" viewBox="0 0 62 62" fill="none" xmlns="http://www.w3.org/2000/svg">
<rect width="62" height="62" rx="31" fill="#F9F9F9"/>
<g clip-path="url(#clip0_27_8075)">
<path d="M15 22.1988C15 19.9586 15 18.8385 15.436 17.9829C15.8195 17.2302 16.4314 16.6183 17.184 16.2348C18.0397 15.7988 19.1598 15.7988 21.4 15.7988H40.6C42.8402 15.7988 43.9603 15.7988 44.816 16.2348C45.5686 16.6183 46.1805 17.2302 46.564 17.9829C47 18.8385 47 19.9586 47 22.1988V24.8037H15V22.1988Z" fill="#8037FF"/>
<path d="M47 40.6684C47 42.9086 47 44.0287 46.564 44.8843C46.1805 45.637 45.5686 46.2489 44.816 46.6324C43.9603 47.0684 42.8402 47.0684 40.6 47.0684L21.4 47.0684C19.1598 47.0684 18.0397 47.0684 17.184 46.6324C16.4314 46.2489 15.8195 45.637 15.436 44.8843C15 44.0287 15 42.9086 15 40.6684L15 24.8037L47 24.8037L47 40.6684Z" fill="white"/>
<path d="M21.2826 19.0758C20.3784 19.0758 19.6445 18.3433 19.6445 17.4377V14.1615C19.6445 13.256 20.3771 12.5234 21.2826 12.5234C22.1882 12.5234 22.9207 13.256 22.9207 14.1615V17.4377C22.9207 18.3433 22.1882 19.0758 21.2826 19.0758Z" fill="#4B596A"/>
<path d="M40.7162 19.0758C39.812 19.0758 39.0781 18.3433 39.0781 17.4377V14.1615C39.0781 13.256 39.8107 12.5234 40.7162 12.5234C41.6218 12.5234 42.3543 13.256 42.3543 14.1615V17.4377C42.3543 18.3433 41.6218 19.0758 40.7162 19.0758Z" fill="#4B596A"/>
<path d="M30.9994 19.0758C30.0952 19.0758 29.3613 18.3433 29.3613 17.4377V14.1615C29.3613 13.256 30.0939 12.5234 30.9994 12.5234C31.905 12.5234 32.6375 13.256 32.6375 14.1615V17.4377C32.6375 18.3433 31.905 19.0758 30.9994 19.0758Z" fill="#4B596A"/>
<path d="M35.3008 39.972C32.2182 39.972 30.3447 37.6728 30.3447 33.6364C30.3447 29.6 32.2182 27.3008 35.3008 27.3008C38.3835 27.3008 40.2569 29.617 40.2569 33.6364C40.2569 37.6898 38.3835 39.972 35.3008 39.972ZM35.3008 37.8601C36.7314 37.8601 37.6511 36.4806 37.6341 33.6364C37.6341 30.8262 36.7314 29.3956 35.3008 29.3956C33.8702 29.3956 32.9675 30.8262 32.9675 33.6364C32.9505 36.4806 33.8702 37.8601 35.3008 37.8601Z" fill="#2B313D"/>
<path d="M27.6535 27.4707V39.8013H25.0818V29.9062H25.0137L22.1865 31.6774V29.4123L25.2351 27.4707H27.6535Z" fill="#2B313D"/>
</g>
<defs>
<clipPath id="clip0_27_8075">
<rect width="40" height="40" fill="white" transform="translate(11 11)"/>
</clipPath>
</defs>
</svg>
