<svg width="62" height="62" viewBox="0 0 62 62" fill="none" xmlns="http://www.w3.org/2000/svg">
<rect width="62" height="62" rx="31" fill="#F9F9F9"/>
<g clip-path="url(#clip0_330_6997)">
<path d="M31 48.416C40.665 48.416 48.5 40.6043 48.5 30.968C48.5 21.3318 40.665 13.52 31 13.52C21.335 13.52 13.5 21.3318 13.5 30.968C13.5 40.6043 21.335 48.416 31 48.416Z" fill="#FFC84D"/>
<path d="M29.483 35.2308C30.936 35.3578 32.015 35.7278 32.697 36.0398C32.99 36.1738 33.279 35.8488 33.114 35.5728C32.58 34.6848 31.519 33.4698 29.652 33.3078C27.785 33.1458 26.528 34.1568 25.848 34.9398C25.637 35.1828 25.865 35.5528 26.177 35.4718C26.904 35.2828 28.031 35.1038 29.483 35.2308Z" fill="#FF6D00"/>
<path d="M24.9269 21.8339C26.1209 21.9379 26.7859 22.2709 27.3499 22.5799C27.6749 22.7579 27.9579 22.5189 27.8199 22.1489C27.5209 21.3489 26.6259 20.4389 25.0619 20.3019C23.4979 20.1659 22.4569 20.9069 22.0239 21.6429C21.8229 21.9839 22.0599 22.2679 22.4109 22.1489C23.0199 21.9429 23.7339 21.7299 24.9269 21.8339Z" fill="black"/>
<path d="M35.17 18.7563C33.976 18.8603 33.311 19.1933 32.747 19.5023C32.422 19.6803 32.139 19.4413 32.277 19.0713C32.576 18.2713 33.471 17.3613 35.035 17.2243C36.599 17.0883 37.64 17.8293 38.073 18.5653C38.274 18.9063 38.037 19.1903 37.686 19.0713C37.077 18.8653 36.363 18.6523 35.17 18.7563Z" fill="black"/>
<path d="M25.3398 28.4259C26.5709 28.4259 27.5688 27.4311 27.5688 26.2039C27.5688 24.9768 26.5709 23.9819 25.3398 23.9819C24.1088 23.9819 23.1108 24.9768 23.1108 26.2039C23.1108 27.4311 24.1088 28.4259 25.3398 28.4259Z" fill="black"/>
<path d="M34.6207 28.4269C35.8307 28.4269 36.8117 27.2687 36.8117 25.8399C36.8117 24.4112 35.8307 23.2529 34.6207 23.2529C33.4106 23.2529 32.4297 24.4112 32.4297 25.8399C32.4297 27.2687 33.4106 28.4269 34.6207 28.4269Z" fill="black"/>
<path d="M18.9761 43.415C18.9761 41.658 19.1361 39.55 19.2161 38.38C19.2771 37.49 19.3391 35.851 19.4521 35.107C19.5681 34.34 20.0111 33.691 20.8591 33.978C21.6691 34.253 22.0761 35.436 22.0761 36.455C22.0761 37.474 22.1521 38.154 22.7611 38.464C23.3701 38.774 24.1241 38.732 25.3381 38.732C26.5521 38.732 30.7741 38.647 32.9191 38.647C33.4141 38.647 34.1791 38.718 34.5301 39.066C34.9671 39.5 34.8791 40.342 34.2281 40.63C33.1831 41.092 30.7231 40.986 30.0711 41.27C29.4191 41.554 29.4701 42.019 29.4311 42.728C29.3841 43.598 29.5891 45.868 29.3841 46.816C29.1521 47.891 28.5161 48.483 27.5611 48.483H23.4521C20.9971 48.483 18.9771 46.06 18.9771 43.415H18.9761Z" fill="#FF9210"/>
</g>
<defs>
<clipPath id="clip0_330_6997">
<rect width="40" height="40" fill="white" transform="translate(11 11)"/>
</clipPath>
</defs>
</svg>
