<svg width="44" height="44" viewBox="0 0 44 44" fill="none" xmlns="http://www.w3.org/2000/svg">
<circle cx="11.5255" cy="11.5255" r="11.5255" transform="matrix(-1 0 0 1 36.8164 5.5293)" fill="#E8E8E8"/>
<path d="M36.5974 28.7571C37.0641 28.9258 37.516 28.4739 37.3473 28.0072L34.9193 21.2881C34.7735 20.8846 34.2576 20.7696 33.9543 21.073L29.6631 25.3641C29.3598 25.6675 29.4747 26.1833 29.8782 26.3291L36.5974 28.7571Z" fill="#E8E8E8"/>
<circle cx="17.7687" cy="25.2726" r="11.6984" fill="#5084FF"/>
<path d="M6.29527 37.1505C5.82156 37.3216 5.36294 36.863 5.53412 36.3893L7.99857 29.5694C8.14656 29.1598 8.67013 29.0431 8.97805 29.351L13.3335 33.7065C13.6415 34.0145 13.5248 34.538 13.1152 34.686L6.29527 37.1505Z" fill="#5084FF"/>
</svg>
