<svg width="44" height="44" viewBox="0 0 44 44" fill="none" xmlns="http://www.w3.org/2000/svg">
<g clip-path="url(#clip0_3393_19982)">
<path d="M25.0534 33.2559C25.2464 32.8745 25.6609 32.6557 26.0823 32.7276C33.3774 33.9718 38.7812 38.4732 38.7812 43.8359C38.7811 50.1595 31.2675 55.2861 21.999 55.2861C12.7306 55.2861 5.21696 50.1595 5.2168 43.8359C5.2168 38.4739 10.6191 33.9726 17.9129 32.7277C18.3342 32.6557 18.7488 32.8744 18.9418 33.2559L21.1056 37.5329C21.4757 38.2644 22.5203 38.2643 22.8903 37.5328L25.0534 33.2559Z" fill="#6B70FF"/>
<path d="M12.166 11.4512C12.166 8.68975 14.4046 6.45117 17.166 6.45117H26.8301C29.5915 6.45117 31.8301 8.68975 31.8301 11.4512V17.7666H12.166V11.4512Z" fill="#6B70FF"/>
<path d="M14.9609 25.7052C14.9609 24.6999 15.7071 23.8508 16.7041 23.7217L21.998 23.0361L27.292 23.7217C28.289 23.8508 29.0352 24.6999 29.0352 25.7052V29.0808C29.0352 30.0467 28.3449 30.8745 27.3949 31.0482L21.998 32.0349L16.6012 31.0482C15.6512 30.8745 14.9609 30.0467 14.9609 29.0808V25.7052Z" fill="#9FA2FF"/>
<path d="M17.4668 19.9287V21.8135" stroke="#3D3D3D" stroke-width="2" stroke-linecap="round" stroke-linejoin="round"/>
<path d="M26.7246 19.9287V21.8135" stroke="#3D3D3D" stroke-width="2" stroke-linecap="round" stroke-linejoin="round"/>
</g>
<defs>
<clipPath id="clip0_3393_19982">
<rect width="44" height="44" fill="white"/>
</clipPath>
</defs>
</svg>
