<svg width="44" height="44" viewBox="0 0 44 44" fill="none" xmlns="http://www.w3.org/2000/svg">
<g clip-path="url(#clip0_3393_19949)">
<path d="M10.4522 5.75195H10.9792C11.7072 5.75195 12.2962 6.34095 12.2962 7.06895C12.2962 7.79695 11.7072 8.38595 10.9792 8.38595H10.4522C9.28222 8.38595 8.33122 9.33695 8.33122 10.507V15.103C8.33122 19.005 11.2002 22.335 14.8632 22.685C16.9382 22.878 18.9232 22.226 20.4532 20.835C21.9622 19.464 22.8282 17.509 22.8282 15.471V10.507C22.8282 9.33695 21.8772 8.38595 20.7072 8.38595H19.5462C18.8182 8.38595 18.2292 7.79695 18.2292 7.06895C18.2292 6.34095 18.8182 5.75195 19.5462 5.75195H20.7072C23.3292 5.75195 25.4622 7.88495 25.4622 10.507V15.471C25.4622 18.248 24.2832 20.915 22.2262 22.784C20.1412 24.679 17.4392 25.583 14.6142 25.305C9.61522 24.829 5.69922 20.347 5.69922 15.103V10.507C5.69922 7.88495 7.83222 5.75195 10.4542 5.75195H10.4522Z" fill="#949494"/>
<path d="M33.2751 32.3344C36.0525 32.3344 38.3041 30.0828 38.3041 27.3054C38.3041 24.5279 36.0525 22.2764 33.2751 22.2764C30.4977 22.2764 28.2461 24.5279 28.2461 27.3054C28.2461 30.0828 30.4977 32.3344 33.2751 32.3344Z" fill="#949494"/>
<path d="M5.69727 15.1035H8.33027C8.33027 19.0055 11.1993 22.3355 14.8623 22.6855C16.9373 22.8785 18.9223 22.2265 20.4523 20.8355C21.9613 19.4645 22.8273 17.5095 22.8273 15.4715H25.4603C25.4603 18.2485 24.2813 20.9155 22.2243 22.7845C20.1393 24.6795 17.4373 25.5835 14.6123 25.3055C9.61327 24.8295 5.69727 20.3475 5.69727 15.1035Z" fill="#3D3D3D"/>
<path d="M24.4272 38.8852C18.9032 38.8852 14.4102 34.3912 14.4102 28.8682V23.8672H16.7492V28.8682C16.7492 33.1022 20.1932 36.5472 24.4282 36.5472C28.6632 36.5472 32.1072 33.1032 32.1072 28.8682H34.4462C34.4462 34.3922 29.9522 38.8852 24.4292 38.8852H24.4272Z" fill="#3D3D3D"/>
<path d="M33.2747 29.859C34.6852 29.859 35.8287 28.7155 35.8287 27.305C35.8287 25.8944 34.6852 24.751 33.2747 24.751C31.8642 24.751 30.7207 25.8944 30.7207 27.305C30.7207 28.7155 31.8642 29.859 33.2747 29.859Z" fill="#D5D5D5"/>
<path d="M11.1468 8.97523C12.2127 8.97523 13.0768 8.11114 13.0768 7.04523C13.0768 5.97932 12.2127 5.11523 11.1468 5.11523C10.0809 5.11523 9.2168 5.97932 9.2168 7.04523C9.2168 8.11114 10.0809 8.97523 11.1468 8.97523Z" fill="#3D3D3D"/>
<path d="M19.346 8.97523C20.4119 8.97523 21.276 8.11114 21.276 7.04523C21.276 5.97932 20.4119 5.11523 19.346 5.11523C18.2801 5.11523 17.416 5.97932 17.416 7.04523C17.416 8.11114 18.2801 8.97523 19.346 8.97523Z" fill="#3D3D3D"/>
</g>
<defs>
<clipPath id="clip0_3393_19949">
<rect width="40" height="40" fill="white" transform="translate(2 2)"/>
</clipPath>
</defs>
</svg>
