<svg width="62" height="62" viewBox="0 0 62 62" fill="none" xmlns="http://www.w3.org/2000/svg">
<rect width="62" height="62" rx="31" fill="#F9F9F9"/>
<g clip-path="url(#clip0_110_5178)">
<path d="M41.4291 41.4299C42.6983 40.1606 44.756 40.1606 46.0253 41.4299L51.8264 35.6288C52.4656 34.9896 52.4649 33.9536 51.8264 33.3151L28.6842 10.1729C28.0449 9.53372 27.009 9.53442 26.3705 10.1729L20.5694 15.974C21.8387 17.2433 21.8387 19.301 20.5694 20.5702C19.3002 21.8395 17.2425 21.8395 15.9732 20.5702L10.1721 26.3713C9.53289 27.0106 9.5336 28.0465 10.1721 28.685L33.3136 51.8265C33.9528 52.4657 34.9887 52.465 35.6273 51.8265L41.4284 46.0254C40.1591 44.7561 40.1598 42.6991 41.4291 41.4299Z" fill="#7700FF"/>
</g>
<defs>
<clipPath id="clip0_110_5178">
<rect width="40" height="40" fill="white" transform="translate(31 2.71582) rotate(45)"/>
</clipPath>
</defs>
</svg>
