<svg width="40" height="40" viewBox="0 0 40 40" fill="none" xmlns="http://www.w3.org/2000/svg">
<g clip-path="url(#clip0_7_9721)">
<path d="M31.6295 19.5208C34.024 14.3784 31.315 8.04451 25.5788 5.37359C19.8426 2.70266 13.2514 4.70617 10.857 9.84856C8.46256 14.9909 11.1716 21.3249 16.9078 23.9958C22.6439 26.6667 29.2351 24.6632 31.6295 19.5208Z" fill="#333D4B"/>
<path d="M29.8471 15.041C29.8471 11.928 28.5721 9.11597 26.5191 7.08997C25.7001 6.50797 23.6621 5.18797 21.1701 4.47997C16.9101 3.27997 13.3801 4.36997 10.6701 7.71997C9.19009 9.53997 8.57009 11.49 8.83009 13.52C9.07009 15.39 10.0201 17.09 11.0401 18.42C11.1401 18.39 11.2401 18.35 11.3501 18.33C11.8601 18.22 12.4001 18.2 12.9501 18.28C14.8401 18.57 16.3601 20.14 16.5801 22.04C16.6261 22.429 16.6061 22.804 16.5541 23.169C16.5741 23.192 16.5931 23.217 16.6131 23.241C16.7701 22.734 16.8551 22.194 16.8551 21.635C16.8551 19.203 15.2541 17.145 13.0491 16.456C12.8211 16.385 12.5851 16.334 12.3461 16.293C12.2871 16.283 12.2291 16.274 12.1691 16.266C11.9271 16.233 11.6831 16.21 11.4321 16.21H11.4301C10.9151 16.21 10.4261 16.305 9.95409 16.439V16.242C9.95409 14.861 10.3041 13.561 10.9201 12.427C11.0431 12.2 11.1771 11.98 11.3211 11.767C11.6091 11.341 11.9361 10.945 12.2981 10.582C13.7461 9.13397 15.7471 8.23797 17.9571 8.23797C18.2181 8.23797 18.4751 8.25297 18.7291 8.27697C18.8121 8.28497 18.8931 8.29897 18.9761 8.30997C19.1461 8.33097 19.3151 8.35497 19.4811 8.38697C19.5771 8.40597 19.6711 8.42897 19.7651 8.45097C19.9151 8.48597 20.0631 8.52197 20.2101 8.56497C20.3071 8.59297 20.4031 8.62497 20.4981 8.65697C20.6391 8.70397 20.7771 8.75497 20.9151 8.80897C21.0081 8.84597 21.1011 8.88397 21.1921 8.92397C21.3291 8.98497 21.4631 9.04997 21.5951 9.11797C21.6801 9.16197 21.7661 9.20397 21.8501 9.24997C21.9891 9.32797 22.1241 9.41197 22.2581 9.49797C22.3291 9.54297 22.4011 9.58497 22.4701 9.63297C22.6501 9.75597 22.8251 9.88697 22.9941 10.025C23.0121 10.04 23.0321 10.053 23.0501 10.068C23.2351 10.22 23.4111 10.382 23.5811 10.55C23.6421 10.61 23.6971 10.675 23.7561 10.736C23.8631 10.849 23.9701 10.963 24.0701 11.082C24.1341 11.158 24.1941 11.237 24.2551 11.315C24.3431 11.427 24.4291 11.541 24.5111 11.658C24.5711 11.743 24.6271 11.83 24.6841 11.918C24.7601 12.035 24.8321 12.155 24.9021 12.276C24.9541 12.367 25.0061 12.459 25.0541 12.553C25.1191 12.678 25.1791 12.806 25.2381 12.934C25.2811 13.029 25.3251 13.122 25.3641 13.219C25.4211 13.358 25.4701 13.5 25.5191 13.643C25.5501 13.734 25.5841 13.823 25.6121 13.915C25.6691 14.103 25.7161 14.295 25.7591 14.488C25.8851 15.052 25.9571 15.637 25.9571 16.239C25.9571 17.992 25.3871 19.608 24.4311 20.926L24.4391 20.929L18.5071 29.79H18.5021C17.6841 31.095 16.2351 31.967 14.5801 31.967C12.0231 31.967 9.95109 29.894 9.95109 27.338V25.632C9.95109 25.518 9.97509 25.411 9.98409 25.3C9.93309 24.963 9.96209 24.608 10.1071 24.276C10.3371 23.746 10.4571 23.166 10.4571 22.556C10.4571 21.946 10.3371 21.366 10.1071 20.846C9.85709 20.256 9.92709 19.606 10.2471 19.106C9.12709 17.646 8.07709 15.766 7.79709 13.646C7.75809 13.346 7.73809 13.048 7.73209 12.751C7.57909 13.489 7.49609 14.253 7.49609 15.037V30.533C7.49609 34.102 10.3901 36.996 13.9591 36.996C16.2701 36.996 18.2921 35.779 19.4351 33.955L19.4421 33.957L27.7251 21.585L27.7131 21.581C29.0471 19.74 29.8431 17.484 29.8431 15.037L29.8471 15.041Z" fill="#FFCCA8"/>
<path d="M13.0771 26.8042C12.8171 26.8532 12.5541 26.8902 12.2801 26.8902C11.9401 26.8902 11.6001 26.8502 11.2801 26.7702C10.5621 26.6022 10.0921 25.9922 9.9871 25.3042C9.9771 25.4152 9.9541 25.5222 9.9541 25.6362V26.8312C10.4261 26.9652 10.9151 27.0602 11.4301 27.0602C12.0041 27.0602 12.5571 26.9692 13.0771 26.8042Z" fill="#C97C47"/>
<path d="M16.613 23.2409C16.593 23.2169 16.574 23.1929 16.554 23.1689C16.527 23.3589 16.488 23.5439 16.437 23.7249C16.503 23.5669 16.562 23.4059 16.613 23.2409Z" fill="#C97C47"/>
<path d="M13.0771 26.804C12.5571 26.97 12.0051 27.06 11.4301 27.06C10.9151 27.06 10.4261 26.965 9.9541 26.831V27.342C9.9541 29.899 12.0271 31.971 14.5831 31.971C16.2381 31.971 17.6871 31.099 18.5051 29.793H18.5101L24.4421 20.933L24.4341 20.93C25.3901 19.612 25.9601 17.995 25.9601 16.243C25.9601 15.641 25.8881 15.056 25.7621 14.492C25.7731 14.542 25.7891 14.59 25.7991 14.641C17.0731 8.39398 13.0491 16.457 13.0491 16.457C15.2541 17.145 16.8551 19.204 16.8551 21.636C16.8551 22.195 16.7701 22.734 16.6131 23.242C16.5621 23.407 16.5031 23.568 16.4371 23.726C15.9971 25.296 14.7001 26.5 13.0771 26.804Z" fill="#FFB785"/>
<path d="M13.049 16.4562C13.049 16.4562 17.073 8.39321 25.799 14.6402C25.789 14.5902 25.773 14.5412 25.762 14.4912C25.719 14.2982 25.672 14.1062 25.615 13.9182C25.587 13.8262 25.553 13.7372 25.522 13.6462C25.473 13.5032 25.423 13.3612 25.367 13.2222C25.328 13.1252 25.284 13.0312 25.241 12.9372C25.182 12.8082 25.122 12.6812 25.057 12.5562C25.008 12.4622 24.957 12.3702 24.905 12.2792C24.835 12.1572 24.763 12.0382 24.687 11.9212C24.631 11.8332 24.574 11.7462 24.514 11.6612C24.432 11.5442 24.346 11.4312 24.258 11.3182C24.197 11.2402 24.137 11.1612 24.073 11.0852C23.972 10.9662 23.866 10.8522 23.759 10.7392C23.7 10.6772 23.644 10.6132 23.584 10.5532C23.414 10.3852 23.238 10.2232 23.053 10.0712C23.035 10.0562 23.015 10.0432 22.997 10.0282C22.828 9.89121 22.653 9.76021 22.473 9.63621C22.404 9.58921 22.331 9.54721 22.261 9.50121C22.127 9.41521 21.992 9.33121 21.853 9.25321C21.77 9.20621 21.684 9.16421 21.598 9.12121C21.465 9.05321 21.332 8.98721 21.195 8.92721C21.104 8.88621 21.011 8.84921 20.918 8.81221C20.781 8.75721 20.642 8.70721 20.501 8.66021C20.406 8.62821 20.31 8.59721 20.213 8.56821C20.067 8.52521 19.918 8.48821 19.768 8.45421C19.673 8.43221 19.579 8.40921 19.484 8.39021C19.318 8.35821 19.149 8.33521 18.979 8.31321C18.897 8.30321 18.815 8.28821 18.732 8.28021C18.478 8.25621 18.221 8.24121 17.96 8.24121C15.75 8.24121 13.749 9.13721 12.301 10.5852C11.939 10.9472 11.611 11.3442 11.324 11.7702C11.18 11.9832 11.046 12.2032 10.923 12.4302C10.307 13.5642 9.95703 14.8632 9.95703 16.2452V16.4422C10.429 16.3082 10.918 16.2132 11.433 16.2132H11.435C11.686 16.2132 11.931 16.2362 12.172 16.2692C12.231 16.2772 12.29 16.2862 12.349 16.2962C12.588 16.3372 12.824 16.3882 13.052 16.4592L13.049 16.4562Z" fill="#FFA466"/>
<path d="M7.80018 13.6497C8.08018 15.7697 9.13018 17.6497 10.2502 19.1097C9.93018 19.6097 9.86018 20.2597 10.1102 20.8497C10.3402 21.3697 10.4602 21.9497 10.4602 22.5597C10.4602 23.1697 10.3402 23.7497 10.1102 24.2797C9.96518 24.6117 9.93618 24.9667 9.98718 25.3037C10.0922 25.9917 10.5622 26.6017 11.2802 26.7697C11.6002 26.8497 11.9402 26.8897 12.2802 26.8897C12.5532 26.8897 12.8172 26.8517 13.0772 26.8037C14.7002 26.4997 15.9962 25.2947 16.4372 23.7247C16.4882 23.5437 16.5272 23.3587 16.5542 23.1687C16.6062 22.8037 16.6262 22.4287 16.5802 22.0397C16.3602 20.1397 14.8402 18.5697 12.9502 18.2797C12.4002 18.1997 11.8602 18.2197 11.3502 18.3297C11.2402 18.3497 11.1402 18.3897 11.0402 18.4197C10.0202 17.0897 9.07018 15.3897 8.83018 13.5197C8.57018 11.4897 9.19018 9.53972 10.6702 7.71972C13.3802 4.36972 16.9102 3.27972 21.1702 4.47972C23.6622 5.18772 25.7002 6.50772 26.5192 7.08972C26.7652 7.26472 26.9052 7.37572 26.9102 7.37972L27.5602 6.56972C27.4602 6.48972 17.0002 -1.74028 9.86018 7.05972C8.41518 8.85272 7.69918 10.7607 7.73518 12.7547C7.74018 13.0507 7.76118 13.3487 7.80018 13.6497Z" fill="#333D4B"/>
</g>
<defs>
<clipPath id="clip0_7_9721">
<rect width="40" height="40" fill="white"/>
</clipPath>
</defs>
</svg>
