<svg width="40" height="40" viewBox="0 0 40 40" fill="none" xmlns="http://www.w3.org/2000/svg">
<g clip-path="url(#clip0_7_9714)">
<path d="M33.614 28.4438C38.129 23.7198 38.129 16.2788 33.614 11.5548C29.932 7.70284 25.073 3.98584 20.034 3.98584C14.995 3.98584 10.138 7.67784 6.42799 11.5168C1.85799 16.2448 1.85799 23.7538 6.42799 28.4828C10.138 32.3218 15.012 36.0138 20.034 36.0138C25.056 36.0138 29.932 32.2958 33.614 28.4438Z" fill="#E4E7EA"/>
<path d="M20.0328 29.1071C25.0624 29.1071 29.1398 25.0297 29.1398 20.0001C29.1398 14.9704 25.0624 10.8931 20.0328 10.8931C15.0031 10.8931 10.9258 14.9704 10.9258 20.0001C10.9258 25.0297 15.0031 29.1071 20.0328 29.1071Z" fill="#86584A"/>
<path d="M20.0331 25.0179C22.8045 25.0179 25.0511 22.7713 25.0511 19.9999C25.0511 17.2286 22.8045 14.9819 20.0331 14.9819C17.2618 14.9819 15.0151 17.2286 15.0151 19.9999C15.0151 22.7713 17.2618 25.0179 20.0331 25.0179Z" fill="#1F1F1F"/>
<path d="M16.5102 18.7566C17.7964 18.7566 18.8392 17.7139 18.8392 16.4276C18.8392 15.1414 17.7964 14.0986 16.5102 14.0986C15.2239 14.0986 14.1812 15.1414 14.1812 16.4276C14.1812 17.7139 15.2239 18.7566 16.5102 18.7566Z" fill="#F1F3F5"/>
</g>
<defs>
<clipPath id="clip0_7_9714">
<rect width="40" height="40" fill="white"/>
</clipPath>
</defs>
</svg>
