<svg width="40" height="40" viewBox="0 0 40 40" fill="none" xmlns="http://www.w3.org/2000/svg">
<g clip-path="url(#clip0_7_9651)">
<path d="M20.0001 36.8968C27.8376 36.8968 34.1911 29.5905 34.1911 20.5778C34.1911 11.5651 27.8376 4.25879 20.0001 4.25879C12.1626 4.25879 5.80908 11.5651 5.80908 20.5778C5.80908 29.5905 12.1626 36.8968 20.0001 36.8968Z" fill="#FFCCA8"/>
<path d="M8.181 26.677C11.3185 26.677 13.862 24.2916 13.862 21.349C13.862 18.4064 11.3185 16.021 8.181 16.021C5.04347 16.021 2.5 18.4064 2.5 21.349C2.5 24.2916 5.04347 26.677 8.181 26.677Z" fill="#FFCCA8"/>
<path d="M31.8192 26.677C34.9567 26.677 37.5002 24.2916 37.5002 21.349C37.5002 18.4064 34.9567 16.021 31.8192 16.021C28.6817 16.021 26.1382 18.4064 26.1382 21.349C26.1382 24.2916 28.6817 26.677 31.8192 26.677Z" fill="#FFCCA8"/>
<path d="M21.8788 29.5381C22.2178 29.5381 22.4588 29.8641 22.3688 30.1911C22.0828 31.2311 21.1308 31.9951 19.9998 31.9951C18.8688 31.9951 17.9168 31.2311 17.6308 30.1911C17.5408 29.8641 17.7818 29.5381 18.1208 29.5381H21.8788Z" fill="#5C2F17"/>
<path d="M20 19.351C26.7875 19.351 32.29 15.7138 32.29 11.227C32.29 6.74027 26.7875 3.10303 20 3.10303C13.2124 3.10303 7.70996 6.74027 7.70996 11.227C7.70996 15.7138 13.2124 19.351 20 19.351Z" fill="#FFCCA8"/>
<path d="M6.23798 20.9632C6.12698 21.2282 5.74798 21.2202 5.64798 20.9502L4.34498 17.4252C4.34498 17.4252 3.11998 14.0192 4.08598 11.2342C4.59398 9.76825 5.85498 8.69825 7.36098 8.32625C7.54398 8.28125 7.74298 8.23724 7.95898 8.19524C8.50398 8.09024 9.01498 8.49825 9.01498 9.05325C9.01498 10.3832 9.01498 12.6702 9.01498 13.7482C9.01498 14.1342 8.87398 14.5032 8.61998 14.7932L7.78798 15.7392C7.12698 16.4902 6.70498 17.4212 6.57498 18.4132L6.23998 20.9622L6.23798 20.9632Z" fill="black"/>
<path d="M33.3908 20.9632C33.5018 21.2282 33.8808 21.2202 33.9808 20.9502L35.2838 17.4252C35.2838 17.4252 36.5088 14.0192 35.5428 11.2342C35.0348 9.76825 33.7738 8.69825 32.2678 8.32625C32.0848 8.28125 31.8858 8.23724 31.6698 8.19524C31.1248 8.09024 30.6138 8.49825 30.6138 9.05325C30.6138 10.3832 30.6138 12.6702 30.6138 13.7482C30.6138 14.1342 30.7548 14.5032 31.0088 14.7932L31.8408 15.7392C32.5018 16.4902 32.9238 17.4212 33.0538 18.4132L33.3888 20.9622L33.3908 20.9632Z" fill="black"/>
<path d="M16.0129 22.0761C16.8469 22.0761 17.5229 21.2649 17.5229 20.2641C17.5229 19.2634 16.8469 18.4521 16.0129 18.4521C15.179 18.4521 14.5029 19.2634 14.5029 20.2641C14.5029 21.2649 15.179 22.0761 16.0129 22.0761Z" fill="black"/>
<path d="M23.9871 22.0761C24.821 22.0761 25.4971 21.2649 25.4971 20.2641C25.4971 19.2634 24.821 18.4521 23.9871 18.4521C23.1531 18.4521 22.4771 19.2634 22.4771 20.2641C22.4771 21.2649 23.1531 22.0761 23.9871 22.0761Z" fill="black"/>
</g>
<defs>
<clipPath id="clip0_7_9651">
<rect width="40" height="40" fill="white"/>
</clipPath>
</defs>
</svg>
