<svg width="154" height="66" viewBox="0 0 154 66" fill="none" xmlns="http://www.w3.org/2000/svg">
<rect width="154" height="54" rx="18" fill="white"/>
<path d="M29.5332 33.5V31.0415H22.9741V28.8335C23.3143 28.2336 23.6576 27.6367 24.0039 27.043C24.3503 26.443 24.6997 25.8493 25.0522 25.2617C25.411 24.6742 25.7666 24.0928 26.1191 23.5176C26.4779 22.9362 26.8366 22.361 27.1953 21.792C27.554 21.223 27.9128 20.6632 28.2715 20.1128H32.2051V28.7964H33.9585V31.0415H32.2051V33.5H29.5332ZM25.479 28.8799H29.5981V22.228H29.459C29.193 22.6362 28.924 23.0537 28.6519 23.4805C28.3859 23.901 28.1169 24.3309 27.8447 24.77C27.5726 25.203 27.3005 25.6421 27.0283 26.0874C26.7624 26.5327 26.4995 26.978 26.2397 27.4233C25.98 27.8625 25.7264 28.2985 25.479 28.7314V28.8799ZM35.7305 37.0347L36.5283 31.3384H39.2002L37.5396 37.0347H35.7305ZM46.752 33.834C45.6449 33.834 44.6924 33.5495 43.8945 32.9805C43.1029 32.4115 42.4937 31.6012 42.0669 30.5498C41.6401 29.4984 41.4268 28.2521 41.4268 26.811V26.7925C41.4268 25.3514 41.6401 24.1082 42.0669 23.063C42.4937 22.0116 43.1029 21.2013 43.8945 20.6323C44.6924 20.0633 45.6449 19.7788 46.752 19.7788C47.859 19.7788 48.8084 20.0633 49.6001 20.6323C50.3979 21.2013 51.0103 22.0116 51.437 23.063C51.87 24.1082 52.0864 25.3514 52.0864 26.7925V26.811C52.0864 28.2521 51.87 29.4984 51.437 30.5498C51.0103 31.6012 50.3979 32.4115 49.6001 32.9805C48.8084 33.5495 47.859 33.834 46.752 33.834ZM46.752 31.6167C47.2839 31.6167 47.7354 31.4281 48.1064 31.0508C48.4775 30.6673 48.762 30.1169 48.96 29.3994C49.1579 28.682 49.2568 27.8192 49.2568 26.811V26.7925C49.2568 25.7843 49.1579 24.9246 48.96 24.2134C48.762 23.4959 48.4775 22.9486 48.1064 22.5713C47.7354 22.1878 47.2839 21.9961 46.752 21.9961C46.2262 21.9961 45.7778 22.1878 45.4067 22.5713C45.0356 22.9486 44.7511 23.4959 44.5532 24.2134C44.3553 24.9246 44.2563 25.7843 44.2563 26.7925V26.811C44.2563 27.8192 44.3553 28.682 44.5532 29.3994C44.7511 30.1169 45.0356 30.6673 45.4067 31.0508C45.7778 31.4281 46.2262 31.6167 46.752 31.6167ZM59.7217 33.834C58.6146 33.834 57.6621 33.5495 56.8643 32.9805C56.0726 32.4115 55.4634 31.6012 55.0366 30.5498C54.6099 29.4984 54.3965 28.2521 54.3965 26.811V26.7925C54.3965 25.3514 54.6099 24.1082 55.0366 23.063C55.4634 22.0116 56.0726 21.2013 56.8643 20.6323C57.6621 20.0633 58.6146 19.7788 59.7217 19.7788C60.8288 19.7788 61.7782 20.0633 62.5698 20.6323C63.3677 21.2013 63.98 22.0116 64.4067 23.063C64.8397 24.1082 65.0562 25.3514 65.0562 26.7925V26.811C65.0562 28.2521 64.8397 29.4984 64.4067 30.5498C63.98 31.6012 63.3677 32.4115 62.5698 32.9805C61.7782 33.5495 60.8288 33.834 59.7217 33.834ZM59.7217 31.6167C60.2536 31.6167 60.7051 31.4281 61.0762 31.0508C61.4473 30.6673 61.7318 30.1169 61.9297 29.3994C62.1276 28.682 62.2266 27.8192 62.2266 26.811V26.7925C62.2266 25.7843 62.1276 24.9246 61.9297 24.2134C61.7318 23.4959 61.4473 22.9486 61.0762 22.5713C60.7051 22.1878 60.2536 21.9961 59.7217 21.9961C59.196 21.9961 58.7476 22.1878 58.3765 22.5713C58.0054 22.9486 57.7209 23.4959 57.5229 24.2134C57.325 24.9246 57.2261 25.7843 57.2261 26.7925V26.811C57.2261 27.8192 57.325 28.682 57.5229 29.3994C57.7209 30.1169 58.0054 30.6673 58.3765 31.0508C58.7476 31.4281 59.196 31.6167 59.7217 31.6167ZM72.4038 33.7876C71.3957 33.7876 70.5112 33.6206 69.7505 33.2866C68.9959 32.9526 68.396 32.4857 67.9507 31.8857C67.5116 31.2796 67.2611 30.5776 67.1992 29.7798L67.1899 29.6685H69.8618L69.8804 29.7705C69.9175 30.1107 70.0443 30.4168 70.2607 30.689C70.4772 30.9549 70.7648 31.1652 71.1235 31.3198C71.4884 31.4683 71.9121 31.5425 72.3945 31.5425C72.877 31.5425 73.2944 31.4621 73.647 31.3013C73.9995 31.1343 74.2716 30.9054 74.4634 30.6147C74.6613 30.3241 74.7603 29.9901 74.7603 29.6128V29.5942C74.7603 28.951 74.5345 28.4593 74.083 28.1191C73.6315 27.779 73.0007 27.6089 72.1904 27.6089H70.6597V25.6143H72.1533C72.6234 25.6143 73.0316 25.5369 73.3779 25.3823C73.7243 25.2277 73.9902 25.0143 74.1758 24.7422C74.3675 24.4639 74.4634 24.1453 74.4634 23.7866V23.7681C74.4634 23.397 74.3799 23.0785 74.2129 22.8125C74.0521 22.5404 73.814 22.3332 73.4985 22.1909C73.1893 22.0487 72.8151 21.9775 72.376 21.9775C71.943 21.9775 71.5596 22.0518 71.2256 22.2002C70.8916 22.3486 70.6257 22.5589 70.4277 22.8311C70.2298 23.1032 70.1092 23.4248 70.0659 23.7959L70.0566 23.8794H67.4868L67.4961 23.7681C67.5579 22.964 67.7992 22.2682 68.2197 21.6807C68.6403 21.0931 69.2031 20.6385 69.9082 20.3169C70.6195 19.9891 71.4421 19.8252 72.376 19.8252C73.3408 19.8252 74.1758 19.9767 74.8809 20.2798C75.5921 20.5767 76.1426 20.9941 76.5322 21.5322C76.9219 22.0641 77.1167 22.6857 77.1167 23.397V23.4155C77.1167 23.9722 76.993 24.4608 76.7456 24.8813C76.4982 25.3019 76.1611 25.6483 75.7344 25.9204C75.3138 26.1925 74.8438 26.3843 74.3242 26.4956V26.5513C75.32 26.644 76.1147 26.9657 76.7085 27.5161C77.3084 28.0666 77.6084 28.7964 77.6084 29.7056V29.7241C77.6084 30.5343 77.3919 31.2456 76.959 31.8579C76.526 32.4702 75.9199 32.9465 75.1406 33.2866C74.3613 33.6206 73.4491 33.7876 72.4038 33.7876ZM89.0382 21.53H92.3632V23.563H89.0382V21.53ZM91.6982 17.597H94.2252V27.211H91.6982V17.597ZM82.5592 27.914H85.0672V29.529H91.7362V27.914H94.2252V35.001H82.5592V27.914ZM85.0672 31.467V32.968H91.7362V31.467H85.0672ZM83.5852 18.946H85.6372V20.067C85.6372 21.169 85.4599 22.2203 85.1052 23.221C84.7506 24.2217 84.2059 25.0957 83.4712 25.843C82.7492 26.5903 81.8182 27.154 80.6782 27.534L79.4242 25.539C80.1462 25.2857 80.7669 24.969 81.2862 24.589C81.8182 24.209 82.2489 23.772 82.5782 23.278C82.9202 22.784 83.1736 22.2647 83.3382 21.72C83.5029 21.1753 83.5852 20.6243 83.5852 20.067V18.946ZM84.1172 18.946H86.1312V20.048C86.1312 20.732 86.2706 21.416 86.5492 22.1C86.8279 22.7713 87.2586 23.3793 87.8412 23.924C88.4366 24.4687 89.1966 24.8993 90.1212 25.216L88.8862 27.192C87.7969 26.8247 86.8976 26.28 86.1882 25.558C85.4916 24.836 84.9722 24 84.6302 23.05C84.2882 22.1 84.1172 21.0993 84.1172 20.048V18.946ZM80.1082 18.395H89.5702V20.39H80.1082V18.395ZM96.9788 26.128H112.92V28.123H96.9788V26.128ZM103.648 23.848H106.175V27.002H103.648V23.848ZM103.629 17.901H105.795V18.433C105.795 19.079 105.693 19.6997 105.491 20.295C105.288 20.8777 104.99 21.416 104.598 21.91C104.205 22.404 103.724 22.8537 103.154 23.259C102.584 23.6517 101.925 23.9873 101.178 24.266C100.443 24.5447 99.6198 24.7473 98.7078 24.874L97.7768 22.879C98.5748 22.7903 99.2841 22.6447 99.9048 22.442C100.538 22.2267 101.083 21.9733 101.539 21.682C102.007 21.3907 102.394 21.0677 102.698 20.713C103.014 20.3583 103.249 19.991 103.401 19.611C103.553 19.2183 103.629 18.8257 103.629 18.433V17.901ZM104.047 17.901H106.194V18.433C106.194 18.8383 106.27 19.2373 106.422 19.63C106.574 20.0227 106.802 20.3963 107.106 20.751C107.41 21.093 107.79 21.4097 108.246 21.701C108.714 21.9923 109.265 22.2393 109.899 22.442C110.532 22.6447 111.248 22.7903 112.046 22.879L111.115 24.874C110.215 24.7473 109.392 24.5447 108.645 24.266C107.91 23.9873 107.251 23.658 106.669 23.278C106.099 22.8853 105.617 22.442 105.225 21.948C104.832 21.4413 104.534 20.8967 104.332 20.314C104.142 19.7313 104.047 19.1043 104.047 18.433V17.901ZM98.7458 29.358H110.982V35.191H108.455V31.353H98.7458V29.358ZM121.164 26.432H123.672V29.529H121.164V26.432ZM114.457 25.577H130.379V27.591H114.457V25.577ZM122.38 28.826C124.28 28.826 125.775 29.1047 126.864 29.662C127.954 30.2067 128.498 30.992 128.498 32.018C128.498 33.0187 127.954 33.7977 126.864 34.355C125.775 34.9123 124.28 35.191 122.38 35.191C120.48 35.191 118.986 34.9123 117.896 34.355C116.82 33.7977 116.281 33.0187 116.281 32.018C116.281 30.992 116.82 30.2067 117.896 29.662C118.986 29.1047 120.48 28.826 122.38 28.826ZM122.38 30.745C121.595 30.745 120.936 30.7893 120.404 30.878C119.885 30.9667 119.492 31.106 119.226 31.296C118.96 31.4733 118.827 31.714 118.827 32.018C118.827 32.2967 118.96 32.531 119.226 32.721C119.492 32.911 119.885 33.0503 120.404 33.139C120.936 33.2277 121.595 33.272 122.38 33.272C123.166 33.272 123.818 33.2277 124.337 33.139C124.869 33.0503 125.268 32.911 125.534 32.721C125.8 32.531 125.933 32.2967 125.933 32.018C125.933 31.714 125.8 31.4733 125.534 31.296C125.268 31.106 124.869 30.9667 124.337 30.878C123.818 30.7893 123.166 30.745 122.38 30.745ZM120.689 19.25H122.931V19.668C122.931 20.2 122.836 20.7067 122.646 21.188C122.456 21.6693 122.171 22.119 121.791 22.537C121.424 22.9423 120.962 23.3097 120.404 23.639C119.847 23.9683 119.201 24.2407 118.466 24.456C117.732 24.6713 116.915 24.8233 116.015 24.912L115.141 22.917C115.914 22.8537 116.598 22.746 117.193 22.594C117.801 22.442 118.321 22.2583 118.751 22.043C119.195 21.815 119.556 21.5743 119.834 21.321C120.126 21.055 120.341 20.7827 120.48 20.504C120.62 20.2253 120.689 19.9467 120.689 19.668V19.25ZM121.924 19.25H124.147V19.668C124.147 19.9467 124.217 20.2317 124.356 20.523C124.496 20.8017 124.705 21.0677 124.983 21.321C125.275 21.5743 125.636 21.815 126.066 22.043C126.51 22.2583 127.029 22.442 127.624 22.594C128.232 22.746 128.923 22.8537 129.695 22.917L128.821 24.912C127.922 24.8233 127.105 24.6713 126.37 24.456C125.636 24.2407 124.99 23.9747 124.432 23.658C123.888 23.3287 123.425 22.9613 123.045 22.556C122.678 22.138 122.399 21.6883 122.209 21.207C122.019 20.713 121.924 20.2 121.924 19.668V19.25ZM115.92 18.319H128.954V20.314H115.92V18.319Z" fill="#000C1E" fill-opacity="0.8"/>
<path d="M75.7498 65.54L65.3458 56.808C63.1848 54.994 60.4528 54 57.6318 54H96.3678C93.5468 54 90.8148 54.994 88.6538 56.808L78.2498 65.54C77.5298 66.154 76.4698 66.154 75.7498 65.54Z" fill="white"/>
</svg>
