<svg width="30" height="30" viewBox="0 0 30 30" fill="none" xmlns="http://www.w3.org/2000/svg">
<path d="M10.699 14.6333C12.8537 14.6333 14.6005 12.8865 14.6005 10.7317C14.6005 8.57688 12.8537 6.83008 10.699 6.83008C8.54417 6.83008 6.79736 8.57688 6.79736 10.7317C6.79736 12.8865 8.54417 14.6333 10.699 14.6333Z" fill="currentColor"/>
<path d="M10.6995 15.8262C5.45604 15.8262 3.41602 19.4015 3.41602 21.0646C3.41602 22.7277 7.7578 23.1704 10.6995 23.1704C13.6412 23.1704 17.983 22.7277 17.983 21.0646C17.983 19.4015 15.9436 15.8262 10.6995 15.8262Z" fill="currentColor"/>
<path d="M19.3 14.6333C21.4548 14.6333 23.2016 12.8865 23.2016 10.7317C23.2016 8.57688 21.4548 6.83008 19.3 6.83008C17.1452 6.83008 15.3984 8.57688 15.3984 10.7317C15.3984 12.8865 17.1452 14.6333 19.3 14.6333Z" fill="currentColor"/>
<path d="M19.3001 15.8262C14.0566 15.8262 12.0166 19.4015 12.0166 21.0646C12.0166 22.7277 16.3584 23.1704 19.3001 23.1704C22.2418 23.1704 26.5835 22.7277 26.5835 21.0646C26.5835 19.4015 24.5442 15.8262 19.3001 15.8262Z" fill="currentColor"/>
</svg>
