<svg width="30" height="30" viewBox="0 0 30 30" fill="none" xmlns="http://www.w3.org/2000/svg">
<g clip-path="url(#clip0_170_6683)">
<path d="M13.8462 7.07018C14.5377 6.58208 15.4623 6.58208 16.1538 7.07018L22.5601 11.5926C23.0909 11.9674 23.4067 12.5767 23.4067 13.2264V21.6844C23.4067 22.7889 22.5113 23.6844 21.4067 23.6844H17.9376C17.7167 23.6844 17.5376 23.5053 17.5376 23.2844V18.9467C17.5376 18.7258 17.3585 18.5467 17.1376 18.5467H12.8624C12.6415 18.5467 12.4624 18.7258 12.4624 18.9467V23.2844C12.4624 23.5053 12.2833 23.6844 12.0624 23.6844H8.59326C7.48874 23.6844 6.59334 22.7889 6.59326 21.6844V13.2264C6.59326 12.5767 6.90915 11.9674 7.43994 11.5926L13.8462 7.07018Z" fill="currentColor"/>
</g>
<defs>
<clipPath id="clip0_170_6683">
<rect width="30" height="30" fill="white"/>
</clipPath>
</defs>
</svg>
