<svg width="40" height="40" viewBox="0 0 40 40" fill="none" xmlns="http://www.w3.org/2000/svg">
<g clip-path="url(#clip0_7_9765)">
<path d="M36.087 10.576C35.175 9.66502 33.963 9.16202 32.674 9.16302H30.836V7.32502C30.836 6.03602 30.335 4.82402 29.423 3.91202C28.512 3.00102 27.299 2.49802 26.01 2.49902C23.349 2.49902 21.184 4.66402 21.184 7.32402V13.298L13.296 21.186H7.32598C6.03698 21.186 4.82498 21.688 3.91398 22.599C3.00198 23.511 2.50098 24.723 2.50098 26.012C2.50098 27.301 3.00298 28.513 3.91398 29.425C4.82598 30.337 6.03798 30.839 7.32698 30.838H9.16498V32.676C9.16498 33.965 9.66598 35.177 10.578 36.089C11.489 37.001 12.702 37.503 13.991 37.502C16.652 37.502 18.817 35.337 18.817 32.677V26.703L26.705 18.815H32.675C33.964 18.815 35.176 18.314 36.087 17.402C36.999 16.49 37.5 15.278 37.5 13.989C37.5 12.7 36.998 11.488 36.087 10.576Z" fill="#D0D5DA"/>
</g>
<defs>
<clipPath id="clip0_7_9765">
<rect width="40" height="40" fill="white"/>
</clipPath>
</defs>
</svg>
