<svg width="62" height="62" viewBox="0 0 62 62" fill="none" xmlns="http://www.w3.org/2000/svg">
<rect width="62" height="62" rx="31" fill="#F9F9F9"/>
<g clip-path="url(#clip0_41_3821)">
<path d="M45.0938 44.476V17.524C45.0938 15.5777 43.516 14 41.5698 14L20.4278 14C18.4815 14 16.9037 15.5777 16.9037 17.524L16.9037 44.476C16.9037 46.4223 18.4815 48 20.4278 48H41.5698C43.516 48 45.0938 46.4223 45.0938 44.476Z" fill="#4592FB"/>
<path d="M31.6426 23.5721V20.2861C31.6426 19.7338 31.1949 19.2861 30.6426 19.2861H27.3566C26.8043 19.2861 26.3566 19.7338 26.3566 20.2861V23.5721C26.3566 24.1244 26.8043 24.5721 27.3566 24.5721H30.6426C31.1949 24.5721 31.6426 24.1244 31.6426 23.5721Z" fill="white"/>
<path d="M39.4776 14H34.6426V48H39.4776V14Z" fill="#185DEE"/>
</g>
<defs>
<clipPath id="clip0_41_3821">
<rect width="40" height="40" fill="white" transform="translate(11 11)"/>
</clipPath>
</defs>
</svg>
