<svg width="40" height="40" viewBox="0 0 40 40" fill="none" xmlns="http://www.w3.org/2000/svg">
<g clip-path="url(#clip0_7_9738)">
<path d="M20.0002 36.3031C28.3475 36.3031 35.1142 29.2807 35.1142 20.6181C35.1142 11.9555 28.3475 4.93311 20.0002 4.93311C11.653 4.93311 4.88623 11.9555 4.88623 20.6181C4.88623 29.2807 11.653 36.3031 20.0002 36.3031Z" fill="#FFCCA8"/>
<path d="M7.74707 27.416C10.7156 27.416 13.1221 25.1591 13.1221 22.375C13.1221 19.5909 10.7156 17.334 7.74707 17.334C4.77854 17.334 2.37207 19.5909 2.37207 22.375C2.37207 25.1591 4.77854 27.416 7.74707 27.416Z" fill="#FFCCA8"/>
<path d="M32.2529 27.416C35.2215 27.416 37.6279 25.1591 37.6279 22.375C37.6279 19.5909 35.2215 17.334 32.2529 17.334C29.2844 17.334 26.8779 19.5909 26.8779 22.375C26.8779 25.1591 29.2844 27.416 32.2529 27.416Z" fill="#FFCCA8"/>
<path d="M16.2278 23.493C17.017 23.493 17.6568 22.7252 17.6568 21.778C17.6568 20.8308 17.017 20.063 16.2278 20.063C15.4386 20.063 14.7988 20.8308 14.7988 21.778C14.7988 22.7252 15.4386 23.493 16.2278 23.493Z" fill="black"/>
<path d="M23.7718 23.493C24.561 23.493 25.2008 22.7252 25.2008 21.778C25.2008 20.8308 24.561 20.063 23.7718 20.063C22.9826 20.063 22.3428 20.8308 22.3428 21.778C22.3428 22.7252 22.9826 23.493 23.7718 23.493Z" fill="black"/>
<path d="M21.7771 26.8223C22.0981 26.8223 22.3261 27.1303 22.2411 27.4403C21.9701 28.4243 21.0691 29.1463 20.0001 29.1463C18.9311 29.1463 18.0291 28.4233 17.7591 27.4403C17.6741 27.1303 17.9021 26.8223 18.2231 26.8223H21.7771Z" fill="#5C2F17"/>
<path d="M19.5242 9.24016C19.4712 9.93916 20.1622 10.4472 20.8152 10.1932C22.3362 9.60116 24.3372 8.45316 24.3202 6.51216C24.2932 3.38416 20.4252 3.61216 19.5082 3.78516C18.2222 4.02816 16.7272 4.90716 16.0542 5.33616C15.9212 5.42116 15.9522 5.62216 16.1052 5.66016C17.1312 5.91216 19.7102 6.79216 19.5232 9.24116L19.5242 9.24016Z" fill="#333333"/>
</g>
<defs>
<clipPath id="clip0_7_9738">
<rect width="40" height="40" fill="white"/>
</clipPath>
</defs>
</svg>
