<svg width="40" height="40" viewBox="0 0 40 40" fill="none" xmlns="http://www.w3.org/2000/svg">
<g clip-path="url(#clip0_7_9779)">
<path d="M5.12598 28.001L6.60398 33.936C6.87798 35.035 7.86398 35.806 8.99698 35.806H30.942C32.155 35.806 33.189 34.923 33.378 33.725L34.282 28.001H5.12598Z" fill="#333333"/>
<path d="M19.9998 37C27.1739 37 32.9898 31.1842 32.9898 24.01C32.9898 16.8358 27.1739 11.02 19.9998 11.02C12.8256 11.02 7.00977 16.8358 7.00977 24.01C7.00977 31.1842 12.8256 37 19.9998 37Z" fill="#FFCCA8"/>
<path d="M8.14482 29.252C11.0167 29.252 13.3448 27.0685 13.3448 24.375C13.3448 21.6816 11.0167 19.498 8.14482 19.498C5.27294 19.498 2.94482 21.6816 2.94482 24.375C2.94482 27.0685 5.27294 29.252 8.14482 29.252Z" fill="#FFCCA8"/>
<path d="M31.8548 29.252C34.7267 29.252 37.0548 27.0685 37.0548 24.375C37.0548 21.6816 34.7267 19.498 31.8548 19.498C28.9829 19.498 26.6548 21.6816 26.6548 24.375C26.6548 27.0685 28.9829 29.252 31.8548 29.252Z" fill="#FFCCA8"/>
<path d="M34.6886 20.2861C34.8196 11.3681 27.1466 4.08605 18.0606 5.06205C11.0726 5.81305 5.47564 11.4921 4.81664 18.4901C4.74964 19.2021 4.73264 19.9051 4.76164 20.5961C4.76164 20.5961 6.03164 20.2941 7.16064 22.7461L15.7286 13.1581C15.7286 13.1581 26.1306 21.5121 32.9956 21.0561C33.1466 21.0461 33.3216 20.9931 33.4936 20.9201C33.9516 20.6621 34.3356 20.1841 34.6876 20.2871L34.6886 20.2861Z" fill="#333333"/>
<path d="M16.3507 25.0411C17.114 25.0411 17.7327 24.2984 17.7327 23.3821C17.7327 22.4659 17.114 21.7231 16.3507 21.7231C15.5875 21.7231 14.9688 22.4659 14.9688 23.3821C14.9688 24.2984 15.5875 25.0411 16.3507 25.0411Z" fill="black"/>
<path d="M23.6486 25.0411C24.4119 25.0411 25.0306 24.2984 25.0306 23.3821C25.0306 22.4659 24.4119 21.7231 23.6486 21.7231C22.8853 21.7231 22.2666 22.4659 22.2666 23.3821C22.2666 24.2984 22.8853 25.0411 23.6486 25.0411Z" fill="black"/>
<path d="M21.7197 29.9219C22.0307 29.9219 22.2507 30.2199 22.1687 30.5199C21.9067 31.4719 21.0347 32.1709 19.9997 32.1709C18.9647 32.1709 18.0927 31.4719 17.8307 30.5199C17.7487 30.2199 17.9687 29.9219 18.2797 29.9219H21.7197Z" fill="#5C2F17"/>
<path d="M4.29397 18.3462C4.29397 9.6302 11.56 2.6112 20.365 3.0162C28.417 3.3862 34.939 10.1932 34.986 18.2532C34.99 18.9952 34.942 19.7252 34.844 20.4402C34.665 21.7482 33.297 22.5412 32.058 22.0842L19.639 17.5092L4.29297 18.3452L4.29397 18.3462Z" fill="#C2BFBE"/>
<path d="M24.6149 3.78223C20.1169 4.69523 12.5879 7.35323 4.64388 15.0402C4.42088 16.0812 4.29688 17.1592 4.29688 18.2672C4.29688 19.3362 4.41088 20.3772 4.62388 21.3822C4.88888 22.6352 6.23488 23.3382 7.42688 22.8692L33.8209 12.4802C32.1589 8.40923 28.7969 5.22223 24.6159 3.78323L24.6149 3.78223Z" fill="#D6D3D2"/>
<path d="M20.3618 17.776L22.6408 18.616L33.8198 12.479L20.3618 17.776Z" fill="#ABA8A8"/>
<path d="M7.4258 22.8684H8.9138C9.5898 22.8684 10.2578 22.7254 10.8738 22.4494L21.2718 18.1124L20.3608 17.7764L7.4258 22.8684Z" fill="#E6A47B"/>
</g>
<defs>
<clipPath id="clip0_7_9779">
<rect width="40" height="40" fill="white"/>
</clipPath>
</defs>
</svg>
