<svg width="62" height="62" viewBox="0 0 62 62" fill="none" xmlns="http://www.w3.org/2000/svg">
<rect width="62" height="62" rx="31" fill="#F9F9F9"/>
<rect x="13.5" y="13.5" width="35" height="35" rx="17.5" fill="#8037FF"/>
<path d="M32.2656 23.6797C34.0394 23.6798 35.4515 24.2283 36.4209 25.1758C37.3903 26.1233 37.9023 27.4567 37.9023 29C37.9023 30.5646 37.3822 31.8984 36.3975 32.8408C35.413 33.7828 33.9795 34.3193 32.1807 34.3193H29.5762V39.3193H26.0977V23.6797H32.2656ZM29.5762 31.4561H31.6719C32.5868 31.4561 33.2464 31.1994 33.6758 30.7764C34.1049 30.3533 34.3234 29.7444 34.3184 29.001V28.999C34.3234 28.2671 34.1061 27.6717 33.6777 27.2578C33.2484 26.8432 32.5874 26.5911 31.6709 26.5859H29.5762V31.4561Z" fill="white" stroke="white" stroke-width="0.3"/>
</svg>
