<svg width="44" height="44" viewBox="0 0 44 44" fill="none" xmlns="http://www.w3.org/2000/svg">
<g clip-path="url(#clip0_3393_20053)">
<path d="M34.9118 31.2126C35.9161 28.4392 34.8276 24.1286 34.1579 22.32C32.3982 19.0039 16.4236 18.4513 13.9115 20.9132C11.3995 23.375 12.5548 31.8156 14.7655 32.9712C16.9761 34.1268 33.6564 34.6794 34.9118 31.2126Z" fill="#372800"/>
<path d="M7.35254 8.91992C9.36525 8.91992 11.0082 10.5019 11.1064 12.4902C11.5765 12.3497 12.1033 12.4109 12.5449 12.7021C13.3366 13.2242 13.5552 14.2894 13.0332 15.0811L12.7666 15.4844C13.3332 15.1996 13.973 15.0391 14.6504 15.0391C14.7099 15.0391 14.7692 15.0405 14.8281 15.043C16.5405 11.7137 20.0083 9.43555 24.0098 9.43555C28.0106 9.43555 31.4768 11.7136 33.1895 15.042C33.2258 15.0411 33.2622 15.0391 33.2988 15.0391C35.6191 15.0391 37.5 16.92 37.5 19.2402C37.5 21.44 35.8091 23.2434 33.6562 23.4248C32.1767 27.3127 28.417 30.0762 24.0098 30.0762C19.6043 30.0762 15.845 27.3152 14.3643 23.4297C12.1775 23.2825 10.4492 21.4643 10.4492 19.2402C10.4492 18.6668 10.5635 18.12 10.7715 17.6221C10.6536 17.6478 10.5332 17.6616 10.4121 17.6621C9.73048 18.6168 8.61497 19.2402 7.35254 19.2402C5.27662 19.2402 3.59375 17.5574 3.59375 15.4814V12.6787C3.59375 10.6028 5.27662 8.91992 7.35254 8.91992Z" fill="#FFC9A8"/>
<path d="M7.68672 16.4572C10.1195 15.9493 12.5039 17.5098 13.0119 19.9426L15.4436 31.5881C15.9515 34.0209 14.391 36.4053 11.9582 36.9133C9.52542 37.4213 7.14103 35.8607 6.63301 33.4279L4.20137 21.7824C3.69339 19.3496 5.25395 16.9652 7.68672 16.4572Z" fill="#FF879D"/>
<path d="M9.82227 37.668C9.82227 33.2713 13.3865 29.707 17.7832 29.707H30.6074C35.0041 29.707 38.5684 33.2713 38.5684 37.668V37.668H9.82227V37.668Z" fill="#FF879D"/>
<path d="M21.1953 30.0762L21.1953 28.0117C21.1953 26.3549 22.5385 25.0117 24.1953 25.0117C25.8522 25.0117 27.1953 26.3549 27.1953 28.0117L27.1953 30.0762C27.1953 31.733 25.8522 33.0762 24.1953 33.0762C22.5385 33.0762 21.1953 31.733 21.1953 30.0762Z" fill="#FFC9A8"/>
<path d="M10.6609 15.7623C11.2047 15.6658 11.7237 16.0284 11.8202 16.5722C11.9167 17.116 11.5541 17.635 11.0103 17.7315L5.41609 18.7242C4.8723 18.8207 4.35324 18.4581 4.25675 17.9143C4.16026 17.3705 4.52286 16.8515 5.06665 16.755L10.6609 15.7623Z" fill="#FF758E"/>
<circle cx="20.6816" cy="20.0117" r="1.31836" fill="#372800"/>
<circle cx="27.7109" cy="20.0117" r="1.31836" fill="#372800"/>
<path d="M26.0103 23.1843C26.3438 23.1843 26.6044 23.5018 26.5157 23.8235C26.2356 24.8418 25.3032 25.5898 24.1961 25.5898C23.089 25.5898 22.1566 24.8418 21.8765 23.8235C21.7878 23.5018 22.0484 23.1843 22.3819 23.1843L26.0103 23.1843Z" fill="#FF5700"/>
<path d="M13.7011 17.9273C12.5652 16.8981 13.8491 13.8878 14.633 12.5112C15.417 11.1347 18.1327 7.55285 24.5313 7.55285C33.1957 7.55285 35.9219 18.5082 33.9799 18.8817C32.4263 19.1805 30.2951 15.4651 29.4237 13.57C24.6433 18.5912 15.1211 19.2137 13.7011 17.9273Z" fill="#372800"/>
</g>
<defs>
<clipPath id="clip0_3393_20053">
<rect width="44" height="44" fill="white"/>
</clipPath>
</defs>
</svg>
