<svg width="44" height="44" viewBox="0 0 44 44" fill="none" xmlns="http://www.w3.org/2000/svg">
<g clip-path="url(#clip0_3393_19653)">
<path d="M24.2896 4.99121C25.3464 4.99121 26.182 5.85778 26.404 6.89104C27.145 10.3401 29.8616 13.0557 33.311 13.7963C34.3443 14.0182 35.2109 14.8538 35.2109 15.9107V35.9584C35.2109 37.0153 34.3542 37.8721 33.2973 37.8721H11.4058C10.3489 37.8721 9.49219 37.0153 9.49219 35.9584V6.90484C9.49219 5.84797 10.3489 4.99121 11.4058 4.99121H24.2896Z" fill="#DAE0E8"/>
<path fill-rule="evenodd" clip-rule="evenodd" d="M26.7354 14.5689H34.6724L25.666 5.5625V13.4995C25.666 14.0905 26.1444 14.5689 26.7354 14.5689Z" fill="#C0C7D1"/>
<path d="M30.2658 18.96C30.8875 18.96 31.3915 19.464 31.3915 20.0856C31.3915 20.7073 30.8875 21.2112 30.2658 21.2113H14.4362C13.8145 21.2113 13.3105 20.7073 13.3105 20.0856C13.3105 19.4639 13.8145 18.96 14.4362 18.96H30.2658Z" fill="white"/>
<path d="M24.5705 23.9648C25.1922 23.9648 25.6961 24.4688 25.6961 25.0905C25.6961 25.7122 25.1922 26.2162 24.5705 26.2162H14.4362C13.8145 26.2162 13.3105 25.7122 13.3105 25.0905C13.3105 24.4688 13.8145 23.9648 14.4362 23.9648H24.5705Z" fill="white"/>
<path d="M21.3262 26.5713C21.3262 22.9914 18.4237 20.0889 14.8438 20.0889C11.2638 20.0889 8.36133 22.9914 8.36133 26.5713C8.36133 30.1512 11.2638 33.0537 14.8438 33.0537V35.6533C9.82788 35.6533 5.76172 31.5872 5.76172 26.5713C5.76172 21.5554 9.82788 17.4893 14.8438 17.4893C19.8596 17.4893 23.9258 21.5554 23.9258 26.5713C23.9258 31.5872 19.8596 35.6533 14.8438 35.6533V33.0537C18.4237 33.0537 21.3262 30.1512 21.3262 26.5713Z" fill="#FFA04E"/>
<path d="M19.8339 31.5594C20.3416 31.0518 21.1641 31.0518 21.6717 31.5594L28.0204 37.9081C28.5277 38.4158 28.527 39.2384 28.0194 39.746C27.5117 40.2536 26.6892 40.2537 26.1815 39.746L19.8339 33.3973C19.3262 32.8896 19.3262 32.0671 19.8339 31.5594Z" fill="#FFA04E"/>
</g>
<defs>
<clipPath id="clip0_3393_19653">
<rect width="44" height="44" fill="white"/>
</clipPath>
</defs>
</svg>
