<svg width="40" height="40" viewBox="0 0 40 40" fill="none" xmlns="http://www.w3.org/2000/svg">
<g clip-path="url(#clip0_7_9750)">
<path d="M13.2129 11.916C13.2129 11.916 13.4619 14.133 12.0069 15.822C11.1049 16.869 11.3129 18.675 12.3299 19.5H19.2789V11.519L13.2129 11.916Z" fill="#333333"/>
<path d="M25.3448 11.916C25.3448 11.916 25.0958 14.133 26.5508 15.822C27.4528 16.869 27.2448 18.675 26.2278 19.5H19.2788V11.519L25.3448 11.916Z" fill="#333333"/>
<path d="M27.2939 23.579C27.9119 21.172 26.8459 19.525 25.2339 18.553C25.2339 18.553 24.4969 16.143 21.8019 15.756L20.4949 15.679C20.4629 16.32 19.9429 16.833 19.2939 16.833C18.6239 16.833 18.0809 16.29 18.0809 15.62V15.533C17.2769 15.481 13.3119 15.502 10.6459 20.624C8.91086 23.958 7.64386 27.034 6.88786 29.02C6.38886 30.331 6.90486 31.805 8.11086 32.522L17.0379 36.185L17.4369 37.368C17.5799 37.793 17.9789 38.079 18.4269 38.079H29.1949C30.3179 37.396 31.2919 36.474 32.0229 35.341C35.3659 30.159 31.5569 24.783 27.2919 23.579H27.2939ZM13.6559 29.307C12.9399 28.958 12.6599 28.081 13.0419 27.381L14.2939 25.089L15.5599 30.235L13.6559 29.307Z" fill="#A399D3"/>
<path d="M30.778 26.536C29.72 26.173 28.726 25.682 27.795 25.061C27.335 24.754 27.159 24.164 27.404 23.668L27.423 23.629C27.882 22.7 29.008 22.319 29.938 22.778L31.291 23.447C32.22 23.906 32.601 25.032 32.142 25.961L32.122 26C31.877 26.495 31.301 26.715 30.778 26.536Z" fill="#FDCAA6"/>
<path d="M18.0997 31.8671L17.4187 35.8101C17.3927 35.9581 17.4777 36.1031 17.6197 36.1531L21.4917 37.5201C22.4087 37.7821 23.3967 37.5591 24.1137 36.9291L24.4977 36.5911C24.8517 36.2791 25.0727 35.8441 25.1137 35.3741L25.1337 35.1501C25.1937 34.4751 24.7707 33.8521 24.1227 33.6571L22.3587 33.1271C22.1477 33.0641 22.0067 32.8651 22.0167 32.6441C22.0437 32.0361 21.5907 31.5131 20.9837 31.4541L18.3837 31.6131C18.2417 31.6221 18.1237 31.7261 18.0997 31.8671Z" fill="#FDCAA6"/>
<path d="M25.6399 8.56912C25.4919 8.54312 25.3299 8.73512 25.1389 8.84312C25.0639 8.87512 24.9879 8.89812 24.9229 8.90212C21.9439 9.10012 17.4289 5.47412 17.4289 5.47412L13.8649 9.46212C13.7899 9.54512 13.6579 9.52412 13.6039 9.42512C13.2449 8.77412 12.8779 8.69912 12.7329 8.69712C12.2149 9.08212 11.8789 9.67112 11.8789 10.3401C11.8789 11.5001 12.8789 12.4501 14.1189 12.4601C14.8389 14.0901 16.3089 15.3101 18.0889 15.6901C18.1189 16.3301 18.6389 16.8301 19.2889 16.8301C19.9389 16.8301 20.4489 16.3301 20.4889 15.6901C22.2689 15.3001 23.7289 14.0801 24.4389 12.4601C25.6789 12.4501 26.6789 11.5101 26.6789 10.3401C26.6789 9.58812 26.2639 8.94012 25.6399 8.56912Z" fill="#FDCAA6"/>
<path d="M13.6048 9.42496C13.6588 9.52296 13.7908 9.54496 13.8658 9.46196L17.4298 5.47396C17.4298 5.47396 21.9438 9.09996 24.9238 8.90196C24.9898 8.89796 25.0648 8.87496 25.1398 8.84296C25.3308 8.73496 25.4928 8.54396 25.6408 8.56896C25.6458 8.56896 25.6518 8.56596 25.6578 8.56796C25.7168 4.52596 22.0818 1.25796 17.9128 2.03896C15.3088 2.52696 13.2248 4.63396 12.7668 7.24396C12.6848 7.71396 12.6528 8.17796 12.6668 8.62896C12.6678 8.66496 12.6968 8.69696 12.7328 8.69696H12.7348C12.8798 8.69796 13.2468 8.77296 13.6058 9.42496H13.6048Z" fill="#333333"/>
<path d="M17.6981 10.6319C18.0295 10.6319 18.2981 10.3095 18.2981 9.91189C18.2981 9.51425 18.0295 9.19189 17.6981 9.19189C17.3668 9.19189 17.0981 9.51425 17.0981 9.91189C17.0981 10.3095 17.3668 10.6319 17.6981 10.6319Z" fill="black"/>
<path d="M20.8661 10.6319C21.1975 10.6319 21.4661 10.3095 21.4661 9.91189C21.4661 9.51425 21.1975 9.19189 20.8661 9.19189C20.5347 9.19189 20.2661 9.51425 20.2661 9.91189C20.2661 10.3095 20.5347 10.6319 20.8661 10.6319Z" fill="black"/>
<path d="M20.0281 12.75C20.1631 12.75 20.2591 12.88 20.2231 13.01C20.1091 13.423 19.7311 13.726 19.2821 13.726C18.8331 13.726 18.4551 13.423 18.3411 13.01C18.3051 12.88 18.4011 12.75 18.5361 12.75H20.0281Z" fill="#5C2F17"/>
</g>
<defs>
<clipPath id="clip0_7_9750">
<rect width="40" height="40" fill="white"/>
</clipPath>
</defs>
</svg>
