<svg width="44" height="44" viewBox="0 0 44 44" fill="none" xmlns="http://www.w3.org/2000/svg">
<g clip-path="url(#clip0_3393_19813)">
<path d="M13.0347 25.522C14.3978 24.735 16.1403 25.2019 16.9273 26.565L21.4527 34.4029C22.2397 35.766 21.7728 37.5084 20.4097 38.2954C19.0466 39.0825 17.3041 38.6156 16.5171 37.2525L11.9917 29.4146C11.2047 28.0515 11.6716 26.309 13.0347 25.522Z" fill="#ADB8C4"/>
<path d="M6.60547 20.5796C6.60547 15.2825 10.8996 10.9883 16.1968 10.9883H23.2188V30.1709H16.1968C10.8996 30.1709 6.60547 25.8767 6.60547 20.5796V20.5796Z" fill="#D2E1FF"/>
<path d="M10.1746 22.3675C8.70222 21.63 8.70222 19.5286 10.1746 18.7911L34.1688 6.77242C35.4987 6.10628 37.0646 7.07324 37.0646 8.56063L37.0646 32.598C37.0646 34.0854 35.4987 35.0523 34.1688 34.3862L10.1746 22.3675Z" fill="#D2E1FF"/>
<path d="M23.1543 30.9492V10.209C23.1543 9.38056 23.8259 8.70898 24.6543 8.70898C25.4827 8.70898 26.1543 9.38056 26.1543 10.209V30.9492C26.1543 31.7776 25.4827 32.4492 24.6543 32.4492C23.8259 32.4492 23.1543 31.7776 23.1543 30.9492Z" fill="#1052ED"/>
</g>
<defs>
<clipPath id="clip0_3393_19813">
<rect width="44" height="44" fill="white"/>
</clipPath>
</defs>
</svg>
