<svg width="44" height="44" viewBox="0 0 44 44" fill="none" xmlns="http://www.w3.org/2000/svg">
<g clip-path="url(#clip0_3393_19875)">
<path d="M5.82227 15.4404V30.3088C5.82227 31.3434 6.1962 32.2809 6.79665 33.0306L17.0861 24.8283L5.82227 15.4404Z" fill="#9799FF"/>
<path d="M37.2083 33.0297C37.8088 32.2809 38.1827 31.3425 38.1827 30.3079V15.4404L26.918 24.8274L37.2083 33.0297Z" fill="#9799FF"/>
<path d="M19.025 24.5371L5.82227 15.4404L17.087 24.8274L19.025 26.4427C20.8173 27.8323 23.1868 27.8323 24.98 26.4427L26.918 24.8274L38.1827 15.4404L24.98 24.5371C23.1877 25.7721 20.8182 25.7721 19.025 24.5371Z" fill="#8A8DFF"/>
<path d="M24.9794 26.4424C23.187 27.8321 20.8176 27.8321 19.0243 26.4424L17.0863 24.8271L6.79688 33.0294C7.59867 34.0281 8.81485 34.6806 10.1946 34.6806H33.8081C35.1888 34.6806 36.405 34.0281 37.2059 33.0294L26.9164 24.8271L24.9794 26.4424Z" fill="#C2C4FF"/>
<path d="M33.6875 9.31836H10.3167C7.83485 9.31836 5.82227 11.3309 5.82227 13.8127V15.4406L19.025 24.5372C20.8173 25.7723 23.1868 25.7723 24.98 24.5372L38.1827 15.4406V13.8127C38.1827 11.3309 36.1693 9.31836 33.6875 9.31836Z" fill="#C2C4FF"/>
</g>
<defs>
<clipPath id="clip0_3393_19875">
<rect width="35.9551" height="35.9551" fill="white" transform="translate(4.02344 4.02246)"/>
</clipPath>
</defs>
</svg>
