<svg preserveAspectRatio="none" width="100%" height="100%" overflow="visible" style="display: block;" viewBox="0 0 40 40" fill="none" xmlns="http://www.w3.org/2000/svg">
<g id="&#240;&#159;&#147;&#133; &#235;&#139;&#172;&#235;&#160;&#165;" clip-path="url(#clip0_0_46)">
<g id="Vector">
</g>
<path id="Rectangle 3464821" d="M4 11.1988C4 8.95862 4 7.83851 4.43597 6.98287C4.81947 6.23022 5.43139 5.6183 6.18404 5.2348C7.03968 4.79883 8.15979 4.79883 10.4 4.79883H29.6C31.8402 4.79883 32.9603 4.79883 33.816 5.2348C34.5686 5.6183 35.1805 6.23022 35.564 6.98287C36 7.83851 36 8.95862 36 11.1988V13.8037H4V11.1988Z" fill="var(--fill-0, #8037FF)"/>
<path id="Rectangle 3464822" d="M36 29.6684C36 31.9086 36 33.0287 35.564 33.8843C35.1805 34.637 34.5686 35.2489 33.816 35.6324C32.9603 36.0684 31.8402 36.0684 29.6 36.0684L10.4 36.0684C8.15979 36.0684 7.03968 36.0684 6.18404 35.6324C5.43139 35.2489 4.81947 34.637 4.43597 33.8843C4 33.0287 4 31.9086 4 29.6684L4 13.8037L36 13.8037L36 29.6684Z" fill="var(--fill-0, white)"/>
<g id="Group">
<path id="Vector_2" d="M10.2832 8.07485C9.37901 8.07485 8.64511 7.3423 8.64511 6.43675V3.16056C8.64511 2.25501 9.37766 1.52246 10.2832 1.52246C11.1888 1.52246 11.9213 2.25501 11.9213 3.16056V6.43675C11.9213 7.3423 11.1888 8.07485 10.2832 8.07485Z" fill="var(--fill-0, #4B596A)"/>
<path id="Vector_3" d="M29.7168 8.07485C28.8126 8.07485 28.0787 7.3423 28.0787 6.43675V3.16056C28.0787 2.25501 28.8112 1.52246 29.7168 1.52246C30.6223 1.52246 31.3549 2.25501 31.3549 3.16056V6.43675C31.3549 7.3423 30.6223 8.07485 29.7168 8.07485Z" fill="var(--fill-0, #4B596A)"/>
<path id="Vector_4" d="M20 8.07485C19.0958 8.07485 18.3619 7.3423 18.3619 6.43675V3.16056C18.3619 2.25501 19.0945 1.52246 20 1.52246C20.9055 1.52246 21.6381 2.25501 21.6381 3.16056V6.43675C21.6381 7.3423 20.9055 8.07485 20 8.07485Z" fill="var(--fill-0, #4B596A)"/>
</g>
<g id="10">
<path id="Vector_5" d="M24.3006 28.9728C21.218 28.9728 19.3445 26.6736 19.3445 22.6372C19.3445 18.6008 21.218 16.3016 24.3006 16.3016C27.3833 16.3016 29.2567 18.6179 29.2567 22.6372C29.2567 26.6907 27.3833 28.9728 24.3006 28.9728ZM24.3006 26.861C25.7312 26.861 26.6509 25.4814 26.6339 22.6372C26.6339 19.8271 25.7312 18.3965 24.3006 18.3965C22.87 18.3965 21.9674 19.8271 21.9674 22.6372C21.9503 25.4814 22.87 26.861 24.3006 26.861Z" fill="var(--fill-0, #2B313D)"/>
<path id="Vector_6" d="M16.6536 16.4715V28.8021H14.0819V18.907H14.0138L11.1866 20.6782V18.4131L14.2352 16.4715H16.6536Z" fill="var(--fill-0, #2B313D)"/>
</g>
</g>
<defs>
<clipPath id="clip0_0_46">
<rect width="40" height="40" fill="white"/>
</clipPath>
</defs>
</svg>
