<svg preserveAspectRatio="none" width="100%" height="100%" overflow="visible" style="display: block;" viewBox="0 0 34.3454 34.3454" fill="none" xmlns="http://www.w3.org/2000/svg">
<g id="Edit 2">
<rect width="34.3454" height="34.3454" rx="17.1727" fill="var(--fill-0, #F2F3F5)"/>
<path id="Icon" d="M21.3651 9.68291C21.5816 9.4664 21.8387 9.29466 22.1216 9.17748C22.4044 9.06031 22.7076 9 23.0138 9C23.32 9 23.6232 9.06031 23.9061 9.17748C24.189 9.29466 24.446 9.4664 24.6625 9.68291C24.879 9.89942 25.0507 10.1564 25.1679 10.4393C25.2851 10.7222 25.3454 11.0254 25.3454 11.3316C25.3454 11.6378 25.2851 11.941 25.1679 12.2239C25.0507 12.5067 24.879 12.7638 24.6625 12.9803L13.6278 24.015C13.5662 24.0765 13.4897 24.1209 13.4058 24.1438L9.84417 25.1152C9.47092 25.217 9.12843 24.8745 9.23023 24.5012L10.2016 20.9396C10.2245 20.8557 10.2689 20.7792 10.3304 20.7176L21.3651 9.68291Z" fill="var(--fill-0, #A4ABBA)"/>
</g>
</svg>
