<svg preserveAspectRatio="none" width="100%" height="100%" overflow="visible" style="display: block;" viewBox="0 0 30 30" fill="none" xmlns="http://www.w3.org/2000/svg">
<g id="Group 1707482307">
<g id="Rectangle 3464827">
</g>
<path id="Subtract" d="M20.2725 5.33669C22.3522 5.33674 24.0381 7.0226 24.0381 9.10232V20.8982C24.0379 22.9778 22.3521 24.6638 20.2725 24.6638H18.0006C17.7926 24.6638 17.624 24.4952 17.624 24.2873V19.4867C17.624 19.2787 17.4554 19.1101 17.2475 19.1101H12.7525C12.5446 19.1101 12.376 19.2787 12.376 19.4867V24.2873C12.376 24.4952 12.2074 24.6638 11.9994 24.6638H9.72656C7.64697 24.6638 5.96112 22.9778 5.96094 20.8982V9.10232C5.96094 7.0226 7.64686 5.33674 9.72656 5.33669H20.2725ZM14.123 8.12478C13.9151 8.12478 13.7462 8.29286 13.7461 8.50076V10.3015C13.7459 10.5094 13.577 10.6785 13.3691 10.6785H11.5693C11.3614 10.6785 11.1925 10.8466 11.1924 11.0545V12.8064C11.1926 13.0142 11.3615 13.1834 11.5693 13.1834H13.3691C13.5771 13.1834 13.746 13.3515 13.7461 13.5594V15.3601C13.7463 15.568 13.9152 15.7371 14.123 15.7371H15.874C16.0819 15.7371 16.2508 15.568 16.251 15.3601V13.5594C16.2511 13.3515 16.42 13.1834 16.6279 13.1834H18.4277C18.6356 13.1834 18.8045 13.0142 18.8047 12.8064V11.0545C18.8046 10.8466 18.6357 10.6785 18.4277 10.6785H16.6279C16.4201 10.6785 16.2512 10.5094 16.251 10.3015V8.50076C16.2509 8.29286 16.0819 8.12478 15.874 8.12478H14.123Z" fill="var(--fill-0, #2B313D)"/>
</g>
</svg>
