<svg preserveAspectRatio="none" width="100%" height="100%" overflow="visible" style="display: block;" viewBox="0 0 30 30" fill="none" xmlns="http://www.w3.org/2000/svg">
<g id="Group 1707482277">
<g id="Rectangle 3464779">
</g>
<path id="Subtract" d="M13.8462 7.07047C14.5377 6.58236 15.4623 6.58236 16.1538 7.07047L22.5601 11.5929C23.0909 11.9677 23.4067 12.5769 23.4067 13.2267V21.6847C23.4067 22.7892 22.5113 23.6847 21.4067 23.6847H17.9376C17.7167 23.6847 17.5376 23.5056 17.5376 23.2847V18.947C17.5376 18.7261 17.3585 18.547 17.1376 18.547H12.8624C12.6415 18.547 12.4624 18.7261 12.4624 18.947V23.2847C12.4624 23.5056 12.2833 23.6847 12.0624 23.6847H8.59326C7.48874 23.6847 6.59334 22.7892 6.59326 21.6847V13.2267C6.59326 12.5769 6.90915 11.9677 7.43994 11.5929L13.8462 7.07047Z" fill="var(--fill-0, #2B313D)"/>
</g>
</svg>
