<svg preserveAspectRatio="none" width="100%" height="100%" overflow="visible" style="display: block;" viewBox="0 0 30 30" fill="none" xmlns="http://www.w3.org/2000/svg">
<g id="Frame 1707490371">
<path id="Union" d="M20.3752 4.79883C20.9378 4.79889 21.3945 5.25485 21.3947 5.81738V7.87402H21.592C22.5501 7.87402 23.3603 8.5844 23.4855 9.53418L25.2619 23.043C25.4122 24.1864 24.5226 25.2011 23.3693 25.2012H6.63203C5.49962 25.2012 4.61584 24.2211 4.73261 23.0947L6.13301 9.58691C6.23399 8.61394 7.0542 7.87402 8.03242 7.87402H8.61543V5.81738C8.61569 5.25497 9.07157 4.79909 9.63398 4.79883C10.1966 4.79889 10.6533 5.25485 10.6535 5.81738V7.87402H13.9855V5.81738C13.9858 5.25481 14.4424 4.79883 15.0051 4.79883C15.5675 4.79906 16.0234 5.25495 16.0236 5.81738V7.87402H19.3566V5.81738C19.3569 5.25497 19.8128 4.79909 20.3752 4.79883ZM17.6711 12.2559C17.041 12.2559 16.4744 12.3894 15.9807 12.6641L15.7736 12.79C15.2362 13.1474 14.8301 13.6654 14.55 14.3262L14.549 14.3271C14.2717 14.9883 14.1391 15.7752 14.1389 16.6777C14.1362 17.5838 14.2681 18.3768 14.5451 19.0459V19.0469C14.8247 19.7149 15.2302 20.2399 15.7668 20.6055H15.7678C16.3083 20.9716 16.9468 21.1505 17.6701 21.1533H17.6711C18.3946 21.1533 19.033 20.9761 19.5715 20.6094C20.1079 20.2438 20.5124 19.7187 20.7893 19.0508C21.0691 18.3817 21.2033 17.5873 21.2033 16.6787C21.2055 15.8886 21.1042 15.1875 20.8908 14.583L20.7922 14.3291C20.512 13.6684 20.1041 13.1497 19.5646 12.79H19.5637C19.0259 12.4301 18.3905 12.2559 17.6711 12.2559ZM10.8586 12.4092L8.86836 13.6689L8.73554 13.7539V15.9365L9.17402 15.6611L10.6232 14.752V20.9766H12.8957V12.3652H10.9289L10.8586 12.4092ZM17.6711 14.2217C17.9065 14.2217 18.1038 14.2984 18.2756 14.4541L18.341 14.5195C18.49 14.6787 18.6207 14.9123 18.7199 15.2393V15.2412C18.8341 15.61 18.8956 16.0869 18.8957 16.6787V16.6797C18.8983 17.5865 18.7629 18.22 18.5275 18.6172C18.2941 19.0106 18.0116 19.1718 17.6711 19.1719C17.4943 19.1719 17.3383 19.1286 17.1975 19.041L17.0617 18.9385C16.8854 18.7777 16.7313 18.5216 16.6154 18.1436C16.5031 17.7656 16.4426 17.2798 16.4426 16.6797C16.4452 15.7863 16.5822 15.1618 16.8176 14.7695C17.0507 14.3814 17.3323 14.2217 17.6711 14.2217ZM19.1818 16.6797C19.1838 17.3742 19.1083 17.9389 18.9543 18.373H18.9533C18.9788 18.3008 19.0023 18.2249 19.0236 18.1455C19.045 18.0659 19.0642 17.9824 19.0812 17.8955C19.1152 17.7219 19.1407 17.5336 19.1574 17.3311C19.1658 17.2296 19.172 17.1243 19.176 17.0156C19.18 16.9071 19.1822 16.7944 19.1818 16.6787V16.6797ZM20.9113 17.0039C20.9075 17.1034 20.9012 17.2018 20.8937 17.2979C20.9014 17.1986 20.9074 17.0972 20.9113 16.9941V17.0039ZM20.051 13.625C20.2381 13.8605 20.3976 14.1327 20.5285 14.4414C20.5612 14.5182 20.5918 14.5979 20.6203 14.6787C20.6475 14.7557 20.6721 14.8353 20.6955 14.916C20.6474 14.7505 20.5923 14.5923 20.5285 14.4424C20.3977 14.1337 20.238 13.8614 20.051 13.626V13.625ZM15.9318 13.0293C15.6899 13.1902 15.4756 13.3882 15.2893 13.623C15.3358 13.5643 15.3837 13.5073 15.4338 13.4531C15.5339 13.345 15.6411 13.2459 15.7551 13.1562C15.8121 13.1114 15.8713 13.0685 15.9318 13.0283C15.9924 12.9879 16.0549 12.9505 16.1184 12.915C16.0548 12.9507 15.9925 12.9888 15.9318 13.0293ZM19.4055 13.0283C19.4343 13.0476 19.4614 13.0696 19.4895 13.0898C19.4615 13.0697 19.4342 13.0484 19.4055 13.0293C19.3463 12.9896 19.2858 12.9518 19.2238 12.917C19.2857 12.9517 19.3464 12.9888 19.4055 13.0283Z" fill="var(--fill-0, #2B313D)"/>
</g>
</svg>
